<?xml version="1.0" encoding="UTF-8"?>
<svg version="1.1" xmlns="http://www.w3.org/2000/svg" width="1024" height="1024">
  <path d="M0,0 L9,0 L9,1 L13,1 L13,2 L16,2 L16,3 L18,3 L18,4 L20,4 L20,5 L22,5 L22,6 L23,6 L23,7 L25,7 L25,8 L26,8 L26,9 L27,9 L27,10 L28,10 L28,11 L29,11 L29,13 L30,13 L30,14 L31,14 L31,16 L32,16 L32,18 L33,18 L33,21 L34,21 L34,24 L35,24 L35,39 L34,39 L34,42 L33,42 L33,44 L32,44 L32,46 L31,46 L31,48 L30,48 L30,49 L29,49 L29,50 L28,50 L28,52 L27,52 L27,53 L26,53 L26,54 L25,54 L25,55 L23,55 L23,56 L22,56 L22,57 L20,57 L20,58 L18,58 L18,59 L16,59 L16,60 L13,60 L13,61 L-2,61 L-2,60 L-6,60 L-6,59 L-8,59 L-8,58 L-10,58 L-10,57 L-12,57 L-12,56 L-13,56 L-13,55 L-15,55 L-15,54 L-16,54 L-16,53 L-17,53 L-17,52 L-18,52 L-18,51 L-19,51 L-19,49 L-20,49 L-20,48 L-21,48 L-21,46 L-22,46 L-22,44 L-23,44 L-23,42 L-24,42 L-24,38 L-25,38 L-25,24 L-24,24 L-24,20 L-23,20 L-23,18 L-22,18 L-22,16 L-21,16 L-21,14 L-20,14 L-20,13 L-19,13 L-19,11 L-18,11 L-18,10 L-17,10 L-17,9 L-16,9 L-16,8 L-15,8 L-15,7 L-13,7 L-13,6 L-12,6 L-12,5 L-11,5 L-11,4 L-9,4 L-9,3 L-7,3 L-7,2 L-4,2 L-4,1 L0,1 Z M0,3 L0,4 L-4,4 L-4,5 L-6,5 L-6,6 L-8,6 L-8,7 L-10,7 L-10,8 L-11,8 L-11,9 L-12,9 L-12,10 L-13,10 L-13,11 L-14,11 L-14,12 L-15,12 L-15,13 L-16,13 L-16,14 L-17,14 L-17,15 L-18,15 L-18,17 L-19,17 L-19,19 L-20,19 L-20,21 L-21,21 L-21,24 L-22,24 L-22,38 L-21,38 L-21,42 L-20,42 L-20,44 L-19,44 L-19,45 L-18,45 L-18,47 L-17,47 L-17,48 L-16,48 L-16,49 L-15,49 L-15,50 L-14,50 L-14,51 L-13,51 L-13,52 L-12,52 L-12,53 L-11,53 L-11,54 L-9,54 L-9,55 L-8,55 L-8,56 L-5,56 L-5,57 L-3,57 L-3,58 L2,58 L2,59 L8,59 L8,58 L13,58 L13,57 L16,57 L16,56 L18,56 L18,55 L20,55 L20,54 L21,54 L21,53 L22,53 L22,52 L24,52 L24,51 L25,51 L25,50 L26,50 L26,48 L27,48 L27,47 L28,47 L28,46 L29,46 L29,44 L30,44 L30,42 L31,42 L31,39 L32,39 L32,31 L33,31 L33,30 L32,30 L32,23 L31,23 L31,21 L30,21 L30,18 L29,18 L29,17 L28,17 L28,15 L27,15 L27,14 L26,14 L26,13 L25,13 L25,12 L24,12 L24,10 L22,10 L22,9 L21,9 L21,8 L20,8 L20,7 L18,7 L18,6 L16,6 L16,5 L14,5 L14,4 L10,4 L10,3 Z " fill="#000000" transform="translate(669,226)"/>
  <path d="M0,0 L2,0 L2,3 L1,3 L1,4 L0,4 L0,5 L-1,5 L-1,6 L-2,6 L-2,7 L-3,7 L-3,8 L-4,8 L-4,9 L-5,9 L-5,10 L-6,10 L-6,11 L-7,11 L-7,12 L-8,12 L-8,13 L-9,13 L-9,14 L-10,14 L-10,15 L-11,15 L-11,16 L-12,16 L-12,17 L-13,17 L-13,18 L-14,18 L-14,19 L-15,19 L-15,20 L-16,20 L-16,21 L-17,21 L-17,22 L-18,22 L-18,23 L-20,23 L-20,22 L-21,22 L-21,21 L-22,21 L-22,20 L-23,20 L-23,19 L-24,19 L-24,18 L-25,18 L-25,17 L-26,17 L-26,16 L-27,16 L-27,15 L-28,15 L-28,14 L-29,14 L-29,11 L-27,11 L-27,12 L-25,12 L-25,13 L-24,13 L-24,14 L-23,14 L-23,15 L-22,15 L-22,16 L-21,16 L-21,17 L-20,17 L-20,18 L-19,18 L-19,19 L-18,19 L-18,18 L-17,18 L-17,17 L-16,17 L-16,16 L-15,16 L-15,15 L-14,15 L-14,14 L-13,14 L-13,13 L-12,13 L-12,12 L-11,12 L-11,11 L-10,11 L-10,10 L-9,10 L-9,9 L-8,9 L-8,8 L-7,8 L-7,7 L-6,7 L-6,6 L-5,6 L-5,5 L-4,5 L-4,4 L-3,4 L-3,3 L-2,3 L-2,2 L-1,2 L-1,1 L0,1 Z " fill="#000000" transform="translate(688,245)"/>
  <path d="M0,0 L6,0 L6,1 L9,1 L9,2 L10,2 L10,3 L11,3 L11,4 L12,4 L12,5 L13,5 L13,6 L14,6 L14,8 L15,8 L15,17 L14,17 L14,19 L13,19 L13,21 L12,21 L12,22 L10,22 L10,23 L9,23 L9,24 L6,24 L6,25 L-1,25 L-1,24 L-3,24 L-3,23 L-5,23 L-5,22 L-6,22 L-6,21 L-7,21 L-7,19 L-8,19 L-8,17 L-9,17 L-9,8 L-8,8 L-8,6 L-7,6 L-7,4 L-6,4 L-6,3 L-4,3 L-4,2 L-3,2 L-3,1 L0,1 Z M0,3 L0,4 L-2,4 L-2,5 L-4,5 L-4,7 L-5,7 L-5,8 L-6,8 L-6,11 L-7,11 L-7,14 L-6,14 L-6,17 L-5,17 L-5,19 L-4,19 L-4,20 L-3,20 L-3,21 L-1,21 L-1,22 L7,22 L7,21 L8,21 L8,20 L10,20 L10,18 L11,18 L11,17 L12,17 L12,9 L11,9 L11,7 L10,7 L10,6 L9,6 L9,5 L8,5 L8,4 L6,4 L6,3 Z " fill="#000000" transform="translate(509,271)"/>
  <path d="M0,0 L9,0 L9,1 L11,1 L11,7 L12,7 L12,8 L14,8 L14,9 L15,9 L15,8 L16,8 L16,7 L17,7 L17,6 L19,6 L19,5 L21,5 L21,6 L22,6 L22,7 L23,7 L23,8 L24,8 L24,9 L25,9 L25,10 L26,10 L26,11 L27,11 L27,12 L28,12 L28,16 L26,16 L26,17 L25,17 L25,21 L26,21 L26,23 L32,23 L32,24 L33,24 L33,34 L32,34 L32,35 L26,35 L26,37 L25,37 L25,40 L26,40 L26,41 L27,41 L27,43 L28,43 L28,46 L27,46 L27,47 L25,47 L25,49 L24,49 L24,50 L23,50 L23,51 L22,51 L22,52 L20,52 L20,51 L18,51 L18,50 L17,50 L17,49 L13,49 L13,50 L11,50 L11,56 L10,56 L10,57 L0,57 L0,56 L-1,56 L-1,55 L-2,55 L-2,50 L-3,50 L-3,49 L-5,49 L-5,48 L-6,48 L-6,49 L-8,49 L-8,50 L-9,50 L-9,51 L-13,51 L-13,50 L-14,50 L-14,49 L-15,49 L-15,48 L-16,48 L-16,47 L-17,47 L-17,46 L-18,46 L-18,45 L-19,45 L-19,43 L-18,43 L-18,42 L-17,42 L-17,41 L-16,41 L-16,36 L-17,36 L-17,35 L-22,35 L-22,34 L-23,34 L-23,33 L-24,33 L-24,24 L-23,24 L-23,23 L-17,23 L-17,21 L-16,21 L-16,17 L-17,17 L-17,15 L-18,15 L-18,14 L-19,14 L-19,12 L-18,12 L-18,11 L-17,11 L-17,10 L-16,10 L-16,9 L-15,9 L-15,8 L-14,8 L-14,6 L-13,6 L-13,5 L-11,5 L-11,6 L-9,6 L-9,7 L-8,7 L-8,8 L-2,8 L-2,5 L-1,5 L-1,1 L0,1 Z M2,3 L2,4 L1,4 L1,10 L-1,10 L-1,11 L-5,11 L-5,12 L-8,12 L-8,11 L-9,11 L-9,10 L-10,10 L-10,9 L-11,9 L-11,8 L-12,8 L-12,9 L-13,9 L-13,10 L-14,10 L-14,11 L-15,11 L-15,14 L-14,14 L-14,16 L-13,16 L-13,17 L-12,17 L-12,19 L-13,19 L-13,21 L-14,21 L-14,24 L-15,24 L-15,25 L-16,25 L-16,26 L-21,26 L-21,32 L-15,32 L-15,33 L-14,33 L-14,36 L-13,36 L-13,38 L-12,38 L-12,40 L-13,40 L-13,42 L-14,42 L-14,43 L-15,43 L-15,45 L-14,45 L-14,46 L-13,46 L-13,47 L-12,47 L-12,48 L-10,48 L-10,47 L-9,47 L-9,46 L-7,46 L-7,45 L-5,45 L-5,46 L-3,46 L-3,47 L-1,47 L-1,48 L0,48 L0,49 L1,49 L1,54 L8,54 L8,48 L11,48 L11,47 L13,47 L13,46 L14,46 L14,45 L16,45 L16,46 L18,46 L18,47 L20,47 L20,48 L22,48 L22,47 L23,47 L23,46 L24,46 L24,45 L25,45 L25,43 L24,43 L24,42 L23,42 L23,41 L22,41 L22,36 L23,36 L23,33 L24,33 L24,32 L30,32 L30,26 L28,26 L28,25 L27,25 L27,26 L25,26 L25,25 L24,25 L24,23 L23,23 L23,21 L22,21 L22,19 L21,19 L21,18 L22,18 L22,16 L23,16 L23,15 L24,15 L24,14 L25,14 L25,12 L24,12 L24,11 L23,11 L23,10 L22,10 L22,9 L21,9 L21,8 L20,8 L20,9 L19,9 L19,10 L18,10 L18,11 L17,11 L17,12 L14,12 L14,11 L13,11 L13,10 L9,10 L9,9 L8,9 L8,3 Z " fill="#000000" transform="translate(389,281)"/>
  <path d="M0,0 L6,0 L6,2 L5,2 L5,3 L0,3 Z " fill="#000000" transform="translate(478,284)"/>
  <path d="M0,0 L6,0 L6,3 L3,3 L3,2 L-1,2 L-1,1 L0,1 Z " fill="#000000" transform="translate(534,284)"/>
  <path d="M0,0 L2,0 L2,1 L5,1 L5,4 L3,4 L3,3 L-1,3 L-1,1 L0,1 Z " fill="#000000" transform="translate(548,285)"/>
  <path d="M0,0 L2,0 L2,2 L3,2 L3,3 L-1,3 L-1,4 L-3,4 L-3,3 L-4,3 L-4,2 L-3,2 L-3,1 L0,1 Z " fill="#000000" transform="translate(468,285)"/>
  <path d="M0,0 L3,0 L3,1 L4,1 L4,2 L3,2 L3,3 L-1,3 L-1,4 L-2,4 L-2,3 L-3,3 L-3,1 L0,1 Z " fill="#000000" transform="translate(454,288)"/>
  <path d="M0,0 L3,0 L3,1 L5,1 L5,4 L4,4 L4,3 L0,3 L0,2 L-1,2 L-1,1 L0,1 Z " fill="#000000" transform="translate(561,288)"/>
  <path d="M0,0 L2,0 L2,1 L5,1 L5,2 L6,2 L6,4 L2,4 L2,3 L0,3 Z " fill="#000000" transform="translate(573,291)"/>
  <path d="M0,0 L2,0 L2,1 L3,1 L3,3 L0,3 L0,4 L-3,4 L-3,1 L0,1 Z " fill="#000000" transform="translate(442,291)"/>
  <path d="M0,0 L3,0 L3,1 L5,1 L5,2 L6,2 L6,4 L3,4 L3,3 L0,3 Z " fill="#000000" transform="translate(586,295)"/>
  <path d="M0,0 L9,0 L9,1 L12,1 L12,2 L13,2 L13,3 L14,3 L14,4 L15,4 L15,5 L16,5 L16,7 L17,7 L17,8 L18,8 L18,12 L19,12 L19,15 L18,15 L18,18 L17,18 L17,20 L16,20 L16,22 L15,22 L15,23 L14,23 L14,24 L13,24 L13,25 L12,25 L12,26 L10,26 L10,27 L0,27 L0,26 L-2,26 L-2,25 L-4,25 L-4,24 L-5,24 L-5,23 L-6,23 L-6,22 L-7,22 L-7,20 L-8,20 L-8,18 L-9,18 L-9,9 L-8,9 L-8,7 L-7,7 L-7,5 L-6,5 L-6,4 L-5,4 L-5,3 L-4,3 L-4,2 L-2,2 L-2,1 L0,1 Z M3,2 L3,3 L0,3 L0,4 L-2,4 L-2,5 L-3,5 L-3,6 L-4,6 L-4,7 L-5,7 L-5,9 L-6,9 L-6,18 L-5,18 L-5,20 L-4,20 L-4,21 L-3,21 L-3,22 L-2,22 L-2,23 L0,23 L0,24 L9,24 L9,23 L11,23 L11,22 L12,22 L12,21 L13,21 L13,20 L14,20 L14,19 L15,19 L15,16 L16,16 L16,11 L15,11 L15,9 L14,9 L14,7 L13,7 L13,6 L12,6 L12,5 L11,5 L11,4 L9,4 L9,3 L6,3 L6,2 Z " fill="#000000" transform="translate(389,296)"/>
  <path d="M0,0 L1,0 L1,1 L2,1 L2,3 L1,3 L1,4 L-1,4 L-1,3 L-2,3 L-2,1 L0,1 Z " fill="#000000" transform="translate(429,295)"/>
  <path d="M0,0 L3,0 L3,1 L5,1 L5,2 L6,2 L6,4 L5,4 L5,5 L4,5 L4,4 L3,4 L3,3 L1,3 L1,2 L-1,2 L-1,1 L0,1 Z " fill="#000000" transform="translate(599,300)"/>
  <path d="M0,0 L90,0 L90,1 L91,1 L91,2 L90,2 L90,9 L91,9 L91,10 L113,10 L113,20 L112,20 L112,28 L111,28 L111,32 L110,32 L110,36 L109,36 L109,39 L108,39 L108,41 L107,41 L107,43 L106,43 L106,45 L105,45 L105,47 L104,47 L104,49 L103,49 L103,51 L102,51 L102,52 L101,52 L101,54 L100,54 L100,55 L99,55 L99,56 L98,56 L98,57 L97,57 L97,59 L96,59 L96,60 L95,60 L95,61 L94,61 L94,62 L93,62 L93,63 L91,63 L91,64 L90,64 L90,65 L89,65 L89,66 L88,66 L88,67 L87,67 L87,68 L85,68 L85,69 L84,69 L84,70 L82,70 L82,71 L80,71 L80,72 L78,72 L78,73 L77,73 L77,74 L74,74 L74,75 L72,75 L72,76 L70,76 L70,77 L69,77 L69,79 L68,79 L68,80 L67,80 L67,81 L65,81 L65,82 L64,82 L64,83 L63,83 L63,84 L62,84 L62,85 L60,85 L60,86 L58,86 L58,87 L56,87 L56,88 L55,88 L55,89 L54,89 L54,106 L55,106 L55,110 L56,110 L56,111 L60,111 L60,112 L63,112 L63,113 L64,113 L64,114 L65,114 L65,115 L66,115 L66,117 L67,117 L67,121 L78,121 L78,152 L83,152 L83,153 L84,153 L84,154 L86,154 L86,156 L87,156 L87,158 L88,158 L88,163 L95,163 L95,166 L-5,166 L-5,163 L2,163 L2,158 L3,158 L3,155 L4,155 L4,154 L5,154 L5,153 L8,153 L8,152 L12,152 L12,121 L23,121 L23,118 L24,118 L24,116 L25,116 L25,114 L26,114 L26,113 L27,113 L27,112 L29,112 L29,111 L34,111 L34,110 L35,110 L35,108 L36,108 L36,104 L37,104 L37,94 L36,94 L36,89 L35,89 L35,88 L33,88 L33,87 L31,87 L31,86 L30,86 L30,85 L29,85 L29,84 L27,84 L27,83 L26,83 L26,82 L25,82 L25,81 L24,81 L24,80 L23,80 L23,79 L22,79 L22,78 L21,78 L21,77 L20,77 L20,76 L19,76 L19,75 L16,75 L16,74 L13,74 L13,73 L11,73 L11,72 L10,72 L10,71 L8,71 L8,70 L6,70 L6,69 L5,69 L5,68 L4,68 L4,67 L2,67 L2,66 L1,66 L1,65 L0,65 L0,64 L-2,64 L-2,63 L-3,63 L-3,62 L-4,62 L-4,61 L-5,61 L-5,60 L-6,60 L-6,59 L-7,59 L-7,58 L-8,58 L-8,56 L-9,56 L-9,55 L-10,55 L-10,53 L-11,53 L-11,52 L-12,52 L-12,50 L-13,50 L-13,49 L-14,49 L-14,47 L-15,47 L-15,45 L-16,45 L-16,43 L-17,43 L-17,40 L-18,40 L-18,38 L-19,38 L-19,35 L-20,35 L-20,32 L-21,32 L-21,27 L-22,27 L-22,20 L-23,20 L-23,10 L-1,10 L-1,9 L0,9 Z M3,2 L3,3 L2,3 L2,14 L3,14 L3,24 L4,24 L4,31 L5,31 L5,37 L6,37 L6,42 L7,42 L7,46 L8,46 L8,49 L9,49 L9,52 L10,52 L10,55 L11,55 L11,57 L12,57 L12,59 L13,59 L13,61 L14,61 L14,63 L15,63 L15,65 L16,65 L16,66 L17,66 L17,68 L18,68 L18,70 L19,70 L19,71 L20,71 L20,72 L21,72 L21,74 L22,74 L22,75 L23,75 L23,76 L24,76 L24,77 L25,77 L25,78 L26,78 L26,79 L27,79 L27,80 L28,80 L28,81 L29,81 L29,82 L31,82 L31,83 L32,83 L32,84 L34,84 L34,85 L37,85 L37,86 L41,86 L41,87 L48,87 L48,86 L53,86 L53,85 L56,85 L56,84 L58,84 L58,83 L59,83 L59,82 L61,82 L61,81 L62,81 L62,80 L63,80 L63,79 L64,79 L64,78 L65,78 L65,77 L66,77 L66,76 L67,76 L67,75 L68,75 L68,74 L69,74 L69,73 L70,73 L70,72 L71,72 L71,70 L72,70 L72,69 L73,69 L73,67 L74,67 L74,65 L75,65 L75,63 L76,63 L76,61 L77,61 L77,59 L78,59 L78,57 L79,57 L79,54 L80,54 L80,52 L81,52 L81,49 L82,49 L82,46 L83,46 L83,42 L84,42 L84,37 L85,37 L85,32 L86,32 L86,25 L87,25 L87,14 L88,14 L88,3 L29,3 L29,2 L9,2 L9,3 L8,3 L8,2 Z M-20,12 L-20,21 L-19,21 L-19,28 L-18,28 L-18,32 L-17,32 L-17,35 L-16,35 L-16,38 L-15,38 L-15,40 L-14,40 L-14,42 L-13,42 L-13,44 L-12,44 L-12,46 L-11,46 L-11,48 L-10,48 L-10,50 L-9,50 L-9,51 L-8,51 L-8,53 L-7,53 L-7,54 L-6,54 L-6,55 L-5,55 L-5,57 L-4,57 L-4,58 L-3,58 L-3,59 L-2,59 L-2,60 L0,60 L0,61 L1,61 L1,62 L2,62 L2,63 L3,63 L3,64 L5,64 L5,65 L6,65 L6,66 L7,66 L7,67 L9,67 L9,68 L10,68 L10,69 L12,69 L12,70 L14,70 L14,71 L15,71 L15,72 L16,72 L16,70 L15,70 L15,69 L14,69 L14,67 L13,67 L13,65 L12,65 L12,63 L11,63 L11,61 L10,61 L10,59 L9,59 L9,57 L8,57 L8,54 L7,54 L7,52 L6,52 L6,49 L5,49 L5,45 L4,45 L4,41 L3,41 L3,36 L2,36 L2,29 L1,29 L1,21 L0,21 L0,13 L-2,13 L-2,12 Z M91,12 L91,13 L90,13 L90,24 L89,24 L89,31 L88,31 L88,37 L87,37 L87,41 L86,41 L86,45 L85,45 L85,49 L84,49 L84,52 L83,52 L83,54 L82,54 L82,57 L81,57 L81,59 L80,59 L80,61 L79,61 L79,63 L78,63 L78,65 L77,65 L77,67 L76,67 L76,69 L75,69 L75,71 L76,71 L76,70 L78,70 L78,69 L80,69 L80,68 L81,68 L81,67 L83,67 L83,66 L84,66 L84,65 L85,65 L85,64 L87,64 L87,63 L88,63 L88,62 L89,62 L89,61 L90,61 L90,60 L91,60 L91,59 L92,59 L92,58 L93,58 L93,57 L94,57 L94,56 L95,56 L95,55 L96,55 L96,54 L97,54 L97,53 L98,53 L98,51 L99,51 L99,50 L100,50 L100,48 L101,48 L101,46 L102,46 L102,45 L103,45 L103,43 L104,43 L104,40 L105,40 L105,38 L106,38 L106,35 L107,35 L107,32 L108,32 L108,28 L109,28 L109,22 L110,22 L110,13 L100,13 L100,12 Z M39,89 L39,108 L38,108 L38,111 L52,111 L52,105 L51,105 L51,89 Z M34,113 L34,114 L29,114 L29,115 L28,115 L28,116 L27,116 L27,117 L26,117 L26,121 L64,121 L64,117 L63,117 L63,116 L62,116 L62,115 L61,115 L61,114 L57,114 L57,113 Z M15,124 L15,152 L63,152 L63,153 L75,153 L75,124 Z M8,155 L8,156 L6,156 L6,158 L5,158 L5,162 L6,162 L6,163 L85,163 L85,157 L84,157 L84,156 L82,156 L82,155 Z " fill="#000000" transform="translate(621,302)"/>
  <path d="M0,0 L2,0 L2,212 L1,212 L1,214 L0,214 L0,215 L-1,215 L-1,216 L-3,216 L-3,217 L-83,217 L-83,218 L-85,218 L-85,219 L-86,219 L-86,220 L-87,220 L-87,223 L-88,223 L-88,264 L-87,264 L-87,265 L-86,265 L-86,264 L-84,264 L-84,267 L-85,267 L-85,268 L-86,268 L-86,269 L-87,269 L-87,271 L-88,271 L-88,272 L-90,272 L-90,271 L-91,271 L-91,269 L-92,269 L-92,268 L-93,268 L-93,266 L-94,266 L-94,264 L-93,264 L-93,265 L-90,265 L-90,236 L-91,236 L-91,224 L-90,224 L-90,220 L-89,220 L-89,218 L-88,218 L-88,217 L-87,217 L-87,216 L-86,216 L-86,215 L-6,215 L-6,214 L-3,214 L-3,213 L-2,213 L-2,212 L-1,212 L-1,210 L0,210 Z " fill="#000000" transform="translate(511,305)"/>
  <path d="M0,0 L3,0 L3,2 L2,2 L2,3 L1,3 L1,4 L0,4 L0,5 L-1,5 L-1,7 L-2,7 L-2,8 L-3,8 L-3,9 L-4,9 L-4,10 L-5,10 L-5,11 L-6,11 L-6,12 L-7,12 L-7,13 L-8,13 L-8,14 L-9,14 L-9,15 L-10,15 L-10,16 L-11,16 L-11,17 L-12,17 L-12,18 L-13,18 L-13,19 L-14,19 L-14,20 L-15,20 L-15,21 L-16,21 L-16,22 L-17,22 L-17,23 L-18,23 L-18,24 L-19,24 L-19,25 L-20,25 L-20,26 L-21,26 L-21,27 L-22,27 L-22,28 L-23,28 L-23,29 L-26,29 L-26,28 L-27,28 L-27,27 L-28,27 L-28,26 L-29,26 L-29,25 L-30,25 L-30,24 L-31,24 L-31,23 L-32,23 L-32,22 L-33,22 L-33,21 L-34,21 L-34,20 L-35,20 L-35,19 L-36,19 L-36,18 L-37,18 L-37,17 L-36,17 L-36,16 L-34,16 L-34,17 L-33,17 L-33,18 L-32,18 L-32,19 L-31,19 L-31,20 L-30,20 L-30,21 L-29,21 L-29,22 L-28,22 L-28,23 L-27,23 L-27,24 L-26,24 L-26,25 L-25,25 L-25,26 L-24,26 L-24,25 L-23,25 L-23,24 L-22,24 L-22,23 L-21,23 L-21,22 L-20,22 L-20,21 L-19,21 L-19,20 L-18,20 L-18,19 L-17,19 L-17,18 L-16,18 L-16,17 L-15,17 L-15,16 L-14,16 L-14,15 L-13,15 L-13,14 L-12,14 L-12,13 L-11,13 L-11,12 L-10,12 L-10,11 L-9,11 L-9,9 L-7,9 L-7,8 L-6,8 L-6,6 L-5,6 L-5,5 L-4,5 L-4,4 L-3,4 L-3,3 L-2,3 L-2,2 L-1,2 L-1,1 L0,1 Z " fill="#000000" transform="translate(686,324)"/>
  <path d="M0,0 L3,0 L3,2 L2,2 L2,3 L1,3 L1,4 L-2,4 L-2,2 L-1,2 L-1,1 L0,1 Z " fill="#000000" transform="translate(358,333)"/>
  <path d="M0,0 L15,0 L15,1 L18,1 L18,2 L21,2 L21,3 L23,3 L23,4 L24,4 L24,5 L26,5 L26,6 L27,6 L27,7 L28,7 L28,8 L30,8 L30,9 L31,9 L31,10 L32,10 L32,12 L33,12 L33,13 L34,13 L34,14 L35,14 L35,16 L36,16 L36,18 L37,18 L37,20 L38,20 L38,23 L39,23 L39,27 L40,27 L40,37 L39,37 L39,40 L38,40 L38,43 L37,43 L37,45 L36,45 L36,47 L35,47 L35,49 L34,49 L34,50 L33,50 L33,52 L32,52 L32,53 L31,53 L31,54 L30,54 L30,55 L29,55 L29,56 L28,56 L28,57 L26,57 L26,58 L25,58 L25,59 L23,59 L23,60 L21,60 L21,61 L19,61 L19,62 L15,62 L15,63 L0,63 L0,62 L-3,62 L-3,61 L-6,61 L-6,60 L-8,60 L-8,59 L-10,59 L-10,58 L-11,58 L-11,57 L-12,57 L-12,56 L-14,56 L-14,55 L-15,55 L-15,54 L-16,54 L-16,53 L-17,53 L-17,52 L-18,52 L-18,50 L-19,50 L-19,49 L-20,49 L-20,47 L-21,47 L-21,45 L-22,45 L-22,43 L-23,43 L-23,40 L-24,40 L-24,34 L-25,34 L-25,29 L-24,29 L-24,23 L-23,23 L-23,20 L-22,20 L-22,18 L-21,18 L-21,16 L-20,16 L-20,14 L-19,14 L-19,13 L-18,13 L-18,11 L-17,11 L-17,10 L-16,10 L-16,9 L-15,9 L-15,8 L-14,8 L-14,7 L-12,7 L-12,6 L-11,6 L-11,5 L-10,5 L-10,4 L-8,4 L-8,3 L-6,3 L-6,2 L-3,2 L-3,1 L0,1 Z M4,2 L4,3 L0,3 L0,4 L-3,4 L-3,5 L-6,5 L-6,6 L-7,6 L-7,7 L-9,7 L-9,8 L-10,8 L-10,9 L-11,9 L-11,10 L-13,10 L-13,11 L-14,11 L-14,12 L-15,12 L-15,14 L-16,14 L-16,15 L-17,15 L-17,17 L-18,17 L-18,18 L-19,18 L-19,20 L-20,20 L-20,23 L-21,23 L-21,29 L-22,29 L-22,35 L-21,35 L-21,40 L-20,40 L-20,43 L-19,43 L-19,45 L-18,45 L-18,46 L-17,46 L-17,48 L-16,48 L-16,50 L-15,50 L-15,51 L-14,51 L-14,52 L-13,52 L-13,50 L-12,50 L-12,48 L-11,48 L-11,47 L-10,47 L-10,45 L-8,45 L-8,44 L-7,44 L-7,43 L-5,43 L-5,42 L-3,42 L-3,41 L1,41 L1,40 L14,40 L14,41 L18,41 L18,42 L20,42 L20,43 L21,43 L21,44 L23,44 L23,45 L24,45 L24,46 L25,46 L25,47 L26,47 L26,49 L27,49 L27,51 L28,51 L28,52 L29,52 L29,51 L30,51 L30,50 L31,50 L31,48 L32,48 L32,47 L33,47 L33,45 L34,45 L34,43 L35,43 L35,40 L36,40 L36,35 L37,35 L37,27 L36,27 L36,23 L35,23 L35,20 L34,20 L34,18 L33,18 L33,16 L32,16 L32,15 L31,15 L31,13 L30,13 L30,12 L29,12 L29,11 L28,11 L28,10 L26,10 L26,9 L25,9 L25,8 L23,8 L23,7 L22,7 L22,6 L20,6 L20,5 L18,5 L18,4 L15,4 L15,3 L10,3 L10,2 Z M0,43 L0,44 L-3,44 L-3,45 L-5,45 L-5,46 L-6,46 L-6,47 L-7,47 L-7,48 L-8,48 L-8,49 L-9,49 L-9,51 L-10,51 L-10,55 L-9,55 L-9,56 L-7,56 L-7,57 L-6,57 L-6,58 L-3,58 L-3,59 L-1,59 L-1,60 L4,60 L4,61 L10,61 L10,60 L15,60 L15,59 L19,59 L19,58 L21,58 L21,57 L23,57 L23,56 L24,56 L24,55 L25,55 L25,51 L24,51 L24,50 L23,50 L23,48 L22,48 L22,47 L21,47 L21,46 L19,46 L19,45 L17,45 L17,44 L14,44 L14,43 Z " fill="#000000" transform="translate(331,341)"/>
  <path d="M0,0 L9,0 L9,1 L11,1 L11,2 L13,2 L13,3 L14,3 L14,4 L15,4 L15,6 L16,6 L16,8 L17,8 L17,11 L18,11 L18,13 L17,13 L17,18 L16,18 L16,20 L15,20 L15,21 L14,21 L14,22 L13,22 L13,23 L12,23 L12,24 L10,24 L10,25 L6,25 L6,26 L4,26 L4,25 L0,25 L0,24 L-2,24 L-2,23 L-4,23 L-4,22 L-5,22 L-5,21 L-6,21 L-6,20 L-7,20 L-7,18 L-8,18 L-8,14 L-9,14 L-9,10 L-8,10 L-8,7 L-7,7 L-7,5 L-6,5 L-6,4 L-5,4 L-5,3 L-4,3 L-4,2 L-2,2 L-2,1 L0,1 Z M3,2 L3,3 L0,3 L0,4 L-2,4 L-2,5 L-3,5 L-3,6 L-4,6 L-4,8 L-5,8 L-5,10 L-6,10 L-6,15 L-5,15 L-5,17 L-4,17 L-4,19 L-3,19 L-3,20 L-2,20 L-2,21 L0,21 L0,22 L2,22 L2,23 L7,23 L7,22 L10,22 L10,21 L11,21 L11,20 L12,20 L12,19 L13,19 L13,17 L14,17 L14,9 L13,9 L13,7 L12,7 L12,6 L11,6 L11,5 L10,5 L10,4 L9,4 L9,3 L6,3 L6,2 Z " fill="#000000" transform="translate(334,354)"/>
  <path d="M0,0 L12,0 L12,1 L16,1 L16,2 L18,2 L18,3 L20,3 L20,4 L22,4 L22,5 L23,5 L23,6 L24,6 L24,7 L26,7 L26,8 L27,8 L27,9 L28,9 L28,11 L29,11 L29,12 L30,12 L30,13 L31,13 L31,15 L32,15 L32,18 L33,18 L33,21 L34,21 L34,35 L33,35 L33,38 L32,38 L32,41 L31,41 L31,43 L30,43 L30,44 L29,44 L29,46 L28,46 L28,47 L27,47 L27,48 L26,48 L26,49 L25,49 L25,50 L24,50 L24,51 L23,51 L23,52 L21,52 L21,53 L19,53 L19,54 L17,54 L17,55 L15,55 L15,56 L11,56 L11,57 L0,57 L0,56 L-3,56 L-3,55 L-6,55 L-6,54 L-8,54 L-8,53 L-9,53 L-9,52 L-11,52 L-11,51 L-12,51 L-12,50 L-13,50 L-13,49 L-14,49 L-14,48 L-15,48 L-15,47 L-16,47 L-16,46 L-17,46 L-17,45 L-18,45 L-18,43 L-19,43 L-19,42 L-20,42 L-20,39 L-21,39 L-21,36 L-22,36 L-22,30 L-23,30 L-23,27 L-22,27 L-22,21 L-21,21 L-21,18 L-20,18 L-20,15 L-19,15 L-19,14 L-18,14 L-18,12 L-17,12 L-17,11 L-16,11 L-16,9 L-15,9 L-15,8 L-14,8 L-14,7 L-13,7 L-13,6 L-11,6 L-11,5 L-10,5 L-10,4 L-8,4 L-8,3 L-6,3 L-6,2 L-4,2 L-4,1 L0,1 Z M-1,3 L-1,4 L-4,4 L-4,5 L-6,5 L-6,6 L-8,6 L-8,7 L-9,7 L-9,8 L-10,8 L-10,9 L-11,9 L-11,10 L-12,10 L-12,11 L-13,11 L-13,12 L-14,12 L-14,13 L-15,13 L-15,14 L-16,14 L-16,16 L-17,16 L-17,18 L-18,18 L-18,21 L-19,21 L-19,25 L-20,25 L-20,32 L-19,32 L-19,37 L-18,37 L-18,39 L-17,39 L-17,41 L-16,41 L-16,42 L-15,42 L-15,44 L-14,44 L-14,45 L-13,45 L-13,46 L-12,46 L-12,47 L-11,47 L-11,48 L-10,48 L-10,49 L-8,49 L-8,50 L-7,50 L-7,51 L-5,51 L-5,52 L-3,52 L-3,53 L0,53 L0,54 L12,54 L12,53 L15,53 L15,52 L17,52 L17,51 L19,51 L19,50 L20,50 L20,49 L22,49 L22,48 L23,48 L23,47 L24,47 L24,46 L25,46 L25,45 L26,45 L26,44 L27,44 L27,42 L28,42 L28,41 L29,41 L29,39 L30,39 L30,36 L31,36 L31,30 L32,30 L32,26 L31,26 L31,21 L30,21 L30,18 L29,18 L29,16 L28,16 L28,14 L27,14 L27,13 L26,13 L26,12 L25,12 L25,10 L24,10 L24,9 L22,9 L22,8 L21,8 L21,7 L20,7 L20,6 L18,6 L18,5 L16,5 L16,4 L13,4 L13,3 Z " fill="#000000" transform="translate(458,384)"/>
  <path d="M0,0 L1,0 L1,2 L2,2 L2,4 L3,4 L3,6 L2,6 L2,7 L1,7 L1,6 L0,6 L0,4 L-1,4 L-1,3 L-2,3 L-2,1 L0,1 Z " fill="#000000" transform="translate(713,391)"/>
  <path d="M0,0 L4,0 L4,3 L5,3 L5,5 L6,5 L6,7 L7,7 L7,9 L8,9 L8,10 L13,10 L13,11 L19,11 L19,12 L20,12 L20,14 L19,14 L19,15 L18,15 L18,16 L17,16 L17,17 L16,17 L16,18 L14,18 L14,19 L13,19 L13,21 L12,21 L12,25 L13,25 L13,34 L12,34 L12,33 L10,33 L10,32 L8,32 L8,31 L6,31 L6,30 L4,30 L4,29 L3,29 L3,28 L1,28 L1,29 L-1,29 L-1,30 L-3,30 L-3,31 L-5,31 L-5,32 L-6,32 L-6,33 L-8,33 L-8,34 L-9,34 L-9,33 L-10,33 L-10,30 L-9,30 L-9,25 L-8,25 L-8,20 L-9,20 L-9,19 L-10,19 L-10,18 L-12,18 L-12,17 L-13,17 L-13,16 L-14,16 L-14,15 L-15,15 L-15,13 L-16,13 L-16,12 L-15,12 L-15,11 L-6,11 L-6,10 L-4,10 L-4,9 L-3,9 L-3,7 L-2,7 L-2,4 L-1,4 L-1,2 L0,2 Z M1,5 L1,7 L0,7 L0,9 L-1,9 L-1,12 L-2,12 L-2,13 L-9,13 L-9,14 L-11,14 L-11,15 L-10,15 L-10,16 L-8,16 L-8,17 L-7,17 L-7,18 L-6,18 L-6,19 L-5,19 L-5,20 L-4,20 L-4,22 L-5,22 L-5,25 L-6,25 L-6,28 L-7,28 L-7,29 L-5,29 L-5,28 L-3,28 L-3,27 L-2,27 L-2,26 L0,26 L0,25 L1,25 L1,24 L2,24 L2,25 L4,25 L4,26 L5,26 L5,27 L6,27 L6,28 L8,28 L8,29 L9,29 L9,30 L10,30 L10,25 L9,25 L9,19 L10,19 L10,18 L11,18 L11,17 L13,17 L13,16 L14,16 L14,15 L15,15 L15,14 L13,14 L13,13 L6,13 L6,12 L5,12 L5,10 L4,10 L4,7 L3,7 L3,5 Z " fill="#000000" transform="translate(462,395)"/>
  <path d="M0,0 L3,0 L3,3 L2,3 L2,4 L1,4 L1,6 L0,6 L0,7 L-1,7 L-1,6 L-2,6 L-2,4 L-1,4 L-1,2 L0,2 Z " fill="#000000" transform="translate(303,396)"/>
  <path d="M0,0 L2,0 L2,1 L3,1 L3,3 L4,3 L4,6 L2,6 L2,5 L1,5 L1,3 L0,3 L0,2 L-1,2 L-1,1 L0,1 Z " fill="#000000" transform="translate(719,404)"/>
  <path d="M0,0 L2,0 L2,1 L3,1 L3,3 L2,3 L2,4 L0,4 L0,3 L-1,3 L-1,1 L0,1 Z " fill="#000000" transform="translate(352,406)"/>
  <path d="M0,0 L2,0 L2,3 L1,3 L1,5 L0,5 L0,6 L-2,6 L-2,5 L-3,5 L-3,4 L-2,4 L-2,2 L-1,2 L-1,1 L0,1 Z " fill="#000000" transform="translate(297,408)"/>
  <path d="M0,0 L3,0 L3,1 L4,1 L4,2 L6,2 L6,3 L7,3 L7,5 L5,5 L5,6 L4,6 L4,7 L2,7 L2,8 L0,8 Z " fill="#000000" transform="translate(421,411)"/>
  <path d="M0,0 L3,0 L3,1 L4,1 L4,2 L3,2 L3,3 L0,3 Z " fill="#000000" transform="translate(351,414)"/>
  <path d="M0,0 L4,0 L4,2 L0,2 Z " fill="#000000" transform="translate(359,414)"/>
  <path d="M0,0 L4,0 L4,1 L5,1 L5,2 L0,2 Z " fill="#000000" transform="translate(366,414)"/>
  <path d="M0,0 L3,0 L3,1 L4,1 L4,2 L-1,2 L-1,1 L0,1 Z " fill="#000000" transform="translate(375,414)"/>
  <path d="M0,0 L4,0 L4,2 L0,2 Z " fill="#000000" transform="translate(382,414)"/>
  <path d="M0,0 L4,0 L4,2 L0,2 Z " fill="#000000" transform="translate(390,414)"/>
  <path d="M0,0 L4,0 L4,2 L0,2 Z " fill="#000000" transform="translate(398,414)"/>
  <path d="M0,0 L3,0 L3,1 L4,1 L4,2 L-1,2 L-1,1 L0,1 Z " fill="#000000" transform="translate(406,414)"/>
  <path d="M0,0 L4,0 L4,2 L0,2 Z " fill="#000000" transform="translate(413,414)"/>
  <path d="M0,0 L1,0 L1,1 L2,1 L2,4 L3,4 L3,6 L2,6 L2,7 L1,7 L1,6 L0,6 L0,4 L-1,4 L-1,1 L0,1 Z " fill="#000000" transform="translate(726,415)"/>
  <path d="M0,0 L2,0 L2,1 L3,1 L3,3 L2,3 L2,6 L1,6 L1,7 L-1,7 L-1,6 L-2,6 L-2,5 L-1,5 L-1,3 L0,3 Z " fill="#000000" transform="translate(290,420)"/>
  <path d="M0,0 L1,0 L1,2 L2,2 L2,5 L3,5 L3,6 L2,6 L2,7 L0,7 L0,5 L-1,5 L-1,3 L-2,3 L-2,1 L0,1 Z " fill="#000000" transform="translate(732,427)"/>
  <path d="M0,0 L3,0 L3,1 L37,1 L37,17 L36,17 L36,18 L-1,18 L-1,3 L0,3 Z M3,3 L3,4 L2,4 L2,15 L34,15 L34,4 L33,4 L33,3 Z " fill="#000000" transform="translate(648,431)"/>
  <path d="M0,0 L2,0 L2,4 L1,4 L1,6 L-2,6 L-2,4 L-1,4 L-1,1 L0,1 Z " fill="#000000" transform="translate(285,433)"/>
  <path d="M0,0 L2,0 L2,1 L3,1 L3,5 L4,5 L4,6 L3,6 L3,7 L2,7 L2,6 L1,6 L1,4 L0,4 Z " fill="#000000" transform="translate(736,440)"/>
  <path d="M0,0 L2,0 L2,1 L3,1 L3,3 L2,3 L2,6 L1,6 L1,7 L-1,7 L-1,3 L0,3 Z " fill="#000000" transform="translate(280,445)"/>
  <path d="M0,0 L2,0 L2,4 L28,4 L28,6 L29,6 L29,9 L48,9 L48,12 L47,12 L47,13 L46,13 L46,14 L45,14 L45,15 L44,15 L44,17 L43,17 L43,18 L42,18 L42,19 L41,19 L41,20 L40,20 L40,22 L39,22 L39,23 L40,23 L40,24 L41,24 L41,26 L42,26 L42,27 L43,27 L43,28 L44,28 L44,29 L45,29 L45,31 L46,31 L46,32 L47,32 L47,33 L48,33 L48,36 L21,36 L21,35 L20,35 L20,29 L19,29 L19,28 L3,28 L3,29 L2,29 L2,62 L3,62 L3,63 L4,63 L4,65 L5,65 L5,67 L6,67 L6,70 L5,70 L5,72 L4,72 L4,73 L3,73 L3,74 L2,74 L2,75 L1,75 L1,78 L-1,78 L-1,77 L-2,77 L-2,78 L-3,78 L-3,79 L-4,79 L-4,80 L-5,80 L-5,81 L-6,81 L-6,82 L-8,82 L-8,83 L-9,83 L-9,84 L-11,84 L-11,85 L-27,85 L-27,156 L-28,156 L-28,157 L-29,157 L-29,158 L-30,158 L-30,159 L-31,159 L-31,160 L-38,160 L-38,159 L-40,159 L-40,158 L-42,158 L-42,159 L-44,159 L-44,160 L-51,160 L-51,159 L-53,159 L-53,157 L-54,157 L-54,155 L-55,155 L-55,118 L-57,118 L-57,117 L-60,117 L-60,116 L-61,116 L-61,115 L-62,115 L-62,112 L-63,112 L-63,77 L-62,77 L-62,75 L-61,75 L-61,74 L-60,74 L-60,73 L-59,73 L-59,72 L-14,72 L-14,71 L-13,71 L-13,70 L-12,70 L-12,69 L-11,69 L-11,68 L-9,68 L-9,67 L-8,67 L-8,66 L-7,66 L-7,65 L-6,65 L-6,64 L-4,64 L-4,63 L-3,63 L-3,62 L-1,62 L-1,41 L0,41 L0,36 L-1,36 L-1,30 L0,30 L0,23 L-1,23 L-1,4 L0,4 L0,3 L-1,3 L-1,1 L0,1 Z M3,7 L3,8 L2,8 L2,26 L26,26 L26,7 Z M29,12 L29,29 L28,29 L28,31 L27,31 L27,32 L26,32 L26,33 L43,33 L43,32 L42,32 L42,31 L41,31 L41,29 L40,29 L40,28 L39,28 L39,27 L38,27 L38,25 L37,25 L37,24 L36,24 L36,21 L37,21 L37,20 L38,20 L38,18 L39,18 L39,17 L40,17 L40,16 L41,16 L41,15 L42,15 L42,13 L43,13 L43,12 Z M22,29 L22,31 L23,31 L23,30 L24,30 L24,29 Z M-1,64 L-1,65 L-3,65 L-3,66 L-4,66 L-4,67 L-5,67 L-5,68 L-6,68 L-6,69 L-8,69 L-8,70 L-9,70 L-9,71 L-10,71 L-10,72 L-11,72 L-11,73 L-12,73 L-12,74 L-14,74 L-14,75 L-21,75 L-21,74 L-56,74 L-56,75 L-58,75 L-58,76 L-59,76 L-59,78 L-60,78 L-60,112 L-59,112 L-59,114 L-57,114 L-57,115 L-55,115 L-55,85 L-52,85 L-52,155 L-51,155 L-51,156 L-50,156 L-50,157 L-44,157 L-44,156 L-43,156 L-43,155 L-42,155 L-42,116 L-40,116 L-40,117 L-39,117 L-39,140 L-40,140 L-40,151 L-39,151 L-39,156 L-37,156 L-37,157 L-35,157 L-35,158 L-33,158 L-33,157 L-31,157 L-31,156 L-30,156 L-30,154 L-29,154 L-29,129 L-30,129 L-30,83 L-29,83 L-29,82 L-12,82 L-12,81 L-10,81 L-10,80 L-9,80 L-9,79 L-8,79 L-8,78 L-6,78 L-6,77 L-5,77 L-5,76 L-4,76 L-4,75 L-3,75 L-3,74 L-2,74 L-2,73 L-1,73 L-1,72 L0,72 L0,71 L1,71 L1,70 L2,70 L2,69 L3,69 L3,66 L2,66 L2,65 L1,65 L1,64 Z " fill="#000000" transform="translate(315,450)"/>
  <path d="M0,0 L2,0 L2,1 L3,1 L3,6 L1,6 L1,5 L0,5 Z " fill="#000000" transform="translate(740,453)"/>
  <path d="M0,0 L1,0 L1,1 L2,1 L2,3 L1,3 L1,6 L0,6 L0,7 L-2,7 L-2,4 L-1,4 L-1,1 L0,1 Z " fill="#000000" transform="translate(277,458)"/>
  <path d="M0,0 L3,0 L3,2 L4,2 L4,6 L1,6 L1,2 L0,2 Z " fill="#000000" transform="translate(743,466)"/>
  <path d="M0,0 L2,0 L2,1 L3,1 L3,2 L2,2 L2,6 L1,6 L1,7 L0,7 L0,6 L-1,6 L-1,2 L0,2 Z " fill="#000000" transform="translate(273,471)"/>
  <path d="M0,0 L1,0 L1,1 L2,1 L2,2 L3,2 L3,4 L4,4 L4,5 L5,5 L5,8 L2,8 L2,40 L1,40 L1,43 L0,43 L0,44 L-1,44 L-1,45 L-2,45 L-2,46 L-4,46 L-4,47 L-7,47 L-7,48 L-15,48 L-15,47 L-148,47 L-148,45 L-6,45 L-6,44 L-4,44 L-4,43 L-3,43 L-3,42 L-2,42 L-2,40 L-1,40 L-1,8 L-5,8 L-5,7 L-4,7 L-4,5 L-3,5 L-3,4 L-2,4 L-2,3 L-1,3 L-1,1 L0,1 Z " fill="#000000" transform="translate(677,475)"/>
  <path d="M0,0 L3,0 L3,3 L4,3 L4,6 L1,6 L1,2 L0,2 Z " fill="#000000" transform="translate(746,479)"/>
  <path d="M0,0 L2,0 L2,2 L3,2 L3,6 L2,6 L2,7 L1,7 L1,6 L0,6 Z " fill="#000000" transform="translate(749,492)"/>
  <path d="M0,0 L5,0 L5,1 L8,1 L8,2 L10,2 L10,3 L11,3 L11,4 L12,4 L12,5 L13,5 L13,7 L14,7 L14,10 L15,10 L15,16 L14,16 L14,19 L13,19 L13,21 L12,21 L12,22 L11,22 L11,23 L9,23 L9,24 L8,24 L8,25 L-3,25 L-3,24 L-5,24 L-5,23 L-6,23 L-6,22 L-7,22 L-7,21 L-8,21 L-8,20 L-9,20 L-9,18 L-10,18 L-10,8 L-9,8 L-9,6 L-8,6 L-8,5 L-7,5 L-7,4 L-6,4 L-6,3 L-5,3 L-5,2 L-3,2 L-3,1 L0,1 Z M-1,3 L-1,4 L-3,4 L-3,5 L-4,5 L-4,6 L-5,6 L-5,7 L-6,7 L-6,9 L-7,9 L-7,17 L-6,17 L-6,19 L-5,19 L-5,20 L-4,20 L-4,21 L-2,21 L-2,22 L1,22 L1,23 L4,23 L4,22 L7,22 L7,21 L9,21 L9,20 L10,20 L10,18 L11,18 L11,16 L12,16 L12,9 L11,9 L11,7 L10,7 L10,6 L9,6 L9,5 L7,5 L7,4 L5,4 L5,3 Z " fill="#000000" transform="translate(272,493)"/>
  <path d="M0,0 L53,0 L53,1 L54,1 L54,2 L55,2 L55,3 L56,3 L56,4 L57,4 L57,6 L58,6 L58,78 L57,78 L57,80 L56,80 L56,81 L55,81 L55,82 L54,82 L54,83 L51,83 L51,84 L0,84 L0,83 L-1,83 L-1,82 L-2,82 L-2,81 L-3,81 L-3,80 L-4,80 L-4,78 L-5,78 L-5,6 L-4,6 L-4,3 L-3,3 L-3,2 L-2,2 L-2,1 L0,1 Z M2,2 L2,3 L1,3 L1,4 L0,4 L0,5 L-1,5 L-1,7 L-2,7 L-2,78 L-1,78 L-1,79 L0,79 L0,80 L1,80 L1,81 L51,81 L51,80 L53,80 L53,79 L54,79 L54,77 L55,77 L55,7 L54,7 L54,5 L53,5 L53,4 L52,4 L52,3 L50,3 L50,2 Z " fill="#000000" transform="translate(327,500)"/>
  <path d="M0,0 L3,0 L3,6 L0,6 Z " fill="#000000" transform="translate(750,506)"/>
  <path d="M0,0 L1,0 L1,1 L2,1 L2,2 L1,2 L1,4 L0,4 L0,5 L-1,5 L-1,6 L-2,6 L-2,7 L-3,7 L-3,8 L-4,8 L-4,10 L-5,10 L-5,11 L-6,11 L-6,12 L-7,12 L-7,13 L-8,13 L-8,14 L-11,14 L-11,13 L-12,13 L-12,11 L-13,11 L-13,10 L-14,10 L-14,9 L-15,9 L-15,7 L-12,7 L-12,8 L-11,8 L-11,9 L-10,9 L-10,10 L-8,10 L-8,9 L-7,9 L-7,7 L-6,7 L-6,6 L-5,6 L-5,5 L-4,5 L-4,4 L-3,4 L-3,3 L-2,3 L-2,2 L-1,2 L-1,1 L0,1 Z " fill="#000000" transform="translate(346,510)"/>
  <path d="M0,0 L24,0 L24,2 L23,2 L23,3 L1,3 L1,2 L0,2 Z " fill="#000000" transform="translate(352,515)"/>
  <path d="M0,0 L3,0 L3,5 L2,5 L2,6 L0,6 Z " fill="#000000" transform="translate(751,519)"/>
  <path d="M0,0 L9,0 L9,3 L0,3 Z " fill="#000000" transform="translate(352,522)"/>
  <path d="M0,0 L2,0 L2,1 L3,1 L3,2 L2,2 L2,3 L1,3 L1,4 L0,4 L0,5 L-1,5 L-1,6 L-2,6 L-2,7 L-3,7 L-3,9 L-4,9 L-4,10 L-5,10 L-5,11 L-6,11 L-6,12 L-7,12 L-7,13 L-10,13 L-10,11 L-11,11 L-11,10 L-12,10 L-12,9 L-13,9 L-13,8 L-14,8 L-14,6 L-11,6 L-11,7 L-10,7 L-10,8 L-9,8 L-9,9 L-7,9 L-7,8 L-6,8 L-6,7 L-5,7 L-5,5 L-4,5 L-4,4 L-3,4 L-3,3 L-2,3 L-2,2 L-1,2 L-1,1 L0,1 Z " fill="#000000" transform="translate(345,533)"/>
  <path d="M0,0 L12,0 L12,1 L16,1 L16,2 L18,2 L18,3 L21,3 L21,4 L22,4 L22,5 L24,5 L24,6 L26,6 L26,7 L27,7 L27,8 L28,8 L28,9 L29,9 L29,10 L30,10 L30,11 L31,11 L31,12 L32,12 L32,14 L33,14 L33,15 L34,15 L34,17 L35,17 L35,19 L36,19 L36,21 L37,21 L37,25 L38,25 L38,30 L39,30 L39,35 L38,35 L38,40 L37,40 L37,43 L36,43 L36,46 L35,46 L35,48 L34,48 L34,49 L33,49 L33,51 L32,51 L32,52 L31,52 L31,54 L30,54 L30,55 L29,55 L29,56 L28,56 L28,57 L27,57 L27,58 L25,58 L25,59 L23,59 L23,60 L22,60 L22,61 L20,61 L20,62 L17,62 L17,63 L14,63 L14,64 L9,64 L9,65 L2,65 L2,64 L-2,64 L-2,63 L-5,63 L-5,62 L-8,62 L-8,61 L-10,61 L-10,60 L-11,60 L-11,59 L-13,59 L-13,58 L-14,58 L-14,57 L-15,57 L-15,56 L-16,56 L-16,55 L-17,55 L-17,54 L-18,54 L-18,53 L-19,53 L-19,52 L-20,52 L-20,50 L-21,50 L-21,48 L-22,48 L-22,46 L-23,46 L-23,44 L-24,44 L-24,41 L-25,41 L-25,38 L-26,38 L-26,26 L-25,26 L-25,23 L-24,23 L-24,20 L-23,20 L-23,17 L-22,17 L-22,16 L-21,16 L-21,14 L-20,14 L-20,13 L-19,13 L-19,11 L-18,11 L-18,10 L-17,10 L-17,9 L-16,9 L-16,8 L-15,8 L-15,7 L-13,7 L-13,6 L-12,6 L-12,5 L-10,5 L-10,4 L-9,4 L-9,3 L-6,3 L-6,2 L-3,2 L-3,1 L0,1 Z M5,2 L5,3 L-1,3 L-1,4 L-4,4 L-4,5 L-6,5 L-6,6 L-8,6 L-8,7 L-10,7 L-10,8 L-11,8 L-11,9 L-12,9 L-12,10 L-13,10 L-13,11 L-14,11 L-14,12 L-15,12 L-15,13 L-16,13 L-16,14 L-17,14 L-17,15 L-18,15 L-18,17 L-19,17 L-19,18 L-20,18 L-20,20 L-21,20 L-21,23 L-22,23 L-22,26 L-23,26 L-23,39 L-22,39 L-22,42 L-21,42 L-21,44 L-20,44 L-20,46 L-19,46 L-19,48 L-18,48 L-18,50 L-17,50 L-17,51 L-16,51 L-16,52 L-15,52 L-15,53 L-14,53 L-14,50 L-13,50 L-13,49 L-12,49 L-12,47 L-11,47 L-11,46 L-10,46 L-10,45 L-8,45 L-8,44 L-7,44 L-7,43 L-5,43 L-5,42 L-2,42 L-2,41 L13,41 L13,42 L16,42 L16,43 L19,43 L19,44 L20,44 L20,45 L22,45 L22,46 L23,46 L23,47 L24,47 L24,48 L25,48 L25,50 L26,50 L26,52 L27,52 L27,53 L28,53 L28,52 L29,52 L29,50 L30,50 L30,49 L31,49 L31,47 L32,47 L32,45 L33,45 L33,43 L34,43 L34,40 L35,40 L35,34 L36,34 L36,30 L35,30 L35,24 L34,24 L34,22 L33,22 L33,19 L32,19 L32,18 L31,18 L31,16 L30,16 L30,14 L29,14 L29,13 L28,13 L28,12 L27,12 L27,11 L26,11 L26,10 L25,10 L25,9 L23,9 L23,8 L22,8 L22,7 L20,7 L20,6 L18,6 L18,5 L16,5 L16,4 L13,4 L13,3 L6,3 L6,2 Z M3,43 L3,44 L-2,44 L-2,45 L-5,45 L-5,46 L-6,46 L-6,47 L-8,47 L-8,48 L-9,48 L-9,50 L-10,50 L-10,51 L-11,51 L-11,53 L-12,53 L-12,56 L-11,56 L-11,57 L-9,57 L-9,58 L-8,58 L-8,59 L-6,59 L-6,60 L-3,60 L-3,61 L2,61 L2,62 L10,62 L10,61 L14,61 L14,60 L17,60 L17,59 L19,59 L19,58 L21,58 L21,57 L23,57 L23,56 L24,56 L24,53 L23,53 L23,51 L22,51 L22,49 L21,49 L21,48 L20,48 L20,47 L18,47 L18,46 L16,46 L16,45 L13,45 L13,44 L8,44 L8,43 Z " fill="#000000" transform="translate(740,536)"/>
  <path d="M0,0 L24,0 L24,3 L0,3 Z " fill="#000000" transform="translate(352,537)"/>
  <path d="M0,0 L9,0 L9,1 L10,1 L10,2 L9,2 L9,3 L0,3 Z " fill="#000000" transform="translate(352,544)"/>
  <path d="M0,0 L6,0 L6,1 L9,1 L9,2 L11,2 L11,3 L12,3 L12,4 L13,4 L13,5 L14,5 L14,7 L15,7 L15,9 L16,9 L16,13 L17,13 L17,14 L16,14 L16,18 L15,18 L15,20 L14,20 L14,22 L13,22 L13,23 L12,23 L12,24 L10,24 L10,25 L8,25 L8,26 L-1,26 L-1,25 L-3,25 L-3,24 L-5,24 L-5,23 L-6,23 L-6,22 L-7,22 L-7,21 L-8,21 L-8,19 L-9,19 L-9,17 L-10,17 L-10,9 L-9,9 L-9,7 L-8,7 L-8,5 L-7,5 L-7,4 L-6,4 L-6,3 L-5,3 L-5,2 L-3,2 L-3,1 L0,1 Z M0,3 L0,4 L-2,4 L-2,5 L-4,5 L-4,6 L-5,6 L-5,8 L-6,8 L-6,10 L-7,10 L-7,17 L-6,17 L-6,19 L-5,19 L-5,20 L-4,20 L-4,21 L-3,21 L-3,22 L-1,22 L-1,23 L8,23 L8,22 L9,22 L9,21 L10,21 L10,20 L11,20 L11,19 L12,19 L12,18 L13,18 L13,15 L14,15 L14,12 L13,12 L13,9 L12,9 L12,7 L11,7 L11,6 L10,6 L10,5 L9,5 L9,4 L7,4 L7,3 Z " fill="#000000" transform="translate(743,549)"/>
  <path d="M0,0 L14,0 L14,7 L15,7 L15,13 L14,13 L14,14 L0,14 Z M4,2 L4,3 L3,3 L3,12 L11,12 L11,11 L12,11 L12,3 L11,3 L11,2 Z " fill="#000000" transform="translate(331,556)"/>
  <path d="M0,0 L38,0 L38,1 L39,1 L39,2 L40,2 L40,3 L41,3 L41,6 L42,6 L42,28 L39,28 L39,5 L38,5 L38,4 L37,4 L37,3 L0,3 L0,4 L-1,4 L-1,6 L-2,6 L-2,9 L-1,9 L-1,20 L-2,20 L-2,25 L-1,25 L-1,37 L-2,37 L-2,42 L-1,42 L-1,44 L0,44 L0,45 L1,45 L1,46 L3,46 L3,47 L20,47 L20,49 L0,49 L0,48 L-2,48 L-2,47 L-3,47 L-3,45 L-4,45 L-4,42 L-5,42 L-5,19 L-4,19 L-4,12 L-5,12 L-5,7 L-4,7 L-4,4 L-3,4 L-3,2 L-2,2 L-2,1 L0,1 Z " fill="#000000" transform="translate(556,557)"/>
  <path d="M0,0 L24,0 L24,3 L-1,3 L-1,1 L0,1 Z " fill="#000000" transform="translate(352,559)"/>
  <path d="M0,0 L2,0 L2,1 L3,1 L3,2 L2,2 L2,4 L1,4 L1,5 L0,5 L0,6 L-1,6 L-1,7 L-2,7 L-2,8 L-3,8 L-3,9 L-4,9 L-4,11 L-5,11 L-5,12 L-6,12 L-6,13 L-8,13 L-8,12 L-9,12 L-9,11 L-10,11 L-10,9 L-11,9 L-11,8 L-12,8 L-12,6 L-11,6 L-11,5 L-10,5 L-10,6 L-9,6 L-9,7 L-8,7 L-8,8 L-6,8 L-6,7 L-5,7 L-5,6 L-4,6 L-4,5 L-3,5 L-3,4 L-2,4 L-2,3 L-1,3 L-1,1 L0,1 Z " fill="#000000" transform="translate(572,565)"/>
  <path d="M0,0 L9,0 L9,3 L-1,3 L-1,1 L0,1 Z " fill="#000000" transform="translate(352,566)"/>
  <path d="M0,0 L12,0 L12,1 L13,1 L13,3 L0,3 L0,2 L-1,2 L-1,1 L0,1 Z " fill="#000000" transform="translate(577,571)"/>
  <path d="M0,0 L3,0 L3,1 L4,1 L4,2 L5,2 L5,3 L6,3 L6,4 L5,4 L5,5 L4,5 L4,6 L3,6 L3,7 L1,7 L1,8 L-1,8 L-1,1 L0,1 Z " fill="#000000" transform="translate(702,573)"/>
  <path d="M0,0 L3,0 L3,1 L4,1 L4,3 L-1,3 L-1,1 L0,1 Z " fill="#000000" transform="translate(610,575)"/>
  <path d="M0,0 L2,0 L2,1 L4,1 L4,3 L-1,3 L-1,1 L0,1 Z " fill="#000000" transform="translate(618,575)"/>
  <path d="M0,0 L5,0 L5,1 L4,1 L4,2 L1,2 L1,1 L0,1 Z " fill="#000000" transform="translate(625,576)"/>
  <path d="M0,0 L4,0 L4,2 L1,2 L1,1 L0,1 Z " fill="#000000" transform="translate(633,576)"/>
  <path d="M0,0 L4,0 L4,2 L0,2 Z " fill="#000000" transform="translate(641,576)"/>
  <path d="M0,0 L5,0 L5,1 L4,1 L4,2 L0,2 Z " fill="#000000" transform="translate(648,576)"/>
  <path d="M0,0 L5,0 L5,1 L4,1 L4,2 L0,2 Z " fill="#000000" transform="translate(656,576)"/>
  <path d="M0,0 L5,0 L5,1 L4,1 L4,2 L0,2 Z " fill="#000000" transform="translate(664,576)"/>
  <path d="M0,0 L5,0 L5,1 L4,1 L4,2 L0,2 Z " fill="#000000" transform="translate(672,576)"/>
  <path d="M0,0 L4,0 L4,2 L0,2 Z " fill="#000000" transform="translate(680,576)"/>
  <path d="M0,0 L4,0 L4,2 L0,2 Z " fill="#000000" transform="translate(688,576)"/>
  <path d="M0,0 L4,0 L4,2 L0,2 Z " fill="#000000" transform="translate(696,576)"/>
  <path d="M0,0 L1,0 L1,1 L2,1 L2,4 L1,4 L1,5 L0,5 L0,6 L-1,6 L-1,7 L-2,7 L-2,8 L-3,8 L-3,9 L-4,9 L-4,10 L-5,10 L-5,11 L-6,11 L-6,12 L-9,12 L-9,11 L-10,11 L-10,9 L-11,9 L-11,8 L-12,8 L-12,5 L-10,5 L-10,6 L-9,6 L-9,7 L-8,7 L-8,8 L-6,8 L-6,7 L-5,7 L-5,6 L-4,6 L-4,5 L-3,5 L-3,4 L-2,4 L-2,2 L-1,2 L-1,1 L0,1 Z " fill="#000000" transform="translate(572,584)"/>
  <path d="M0,0 L4,0 L4,1 L13,1 L13,0 L16,0 L16,1 L17,1 L17,17 L16,17 L16,18 L15,18 L15,19 L-1,19 L-1,1 L0,1 Z M1,3 L1,16 L14,16 L14,3 Z " fill="#000000" transform="translate(582,588)"/>
  <path d="M0,0 L46,0 L46,1 L47,1 L47,2 L48,2 L48,3 L49,3 L49,4 L50,4 L50,7 L51,7 L51,24 L50,24 L50,57 L51,57 L51,66 L50,66 L50,69 L49,69 L49,70 L48,70 L48,71 L47,71 L47,72 L46,72 L46,73 L0,73 L0,72 L-1,72 L-1,71 L-2,71 L-2,70 L-3,70 L-3,69 L-4,69 L-4,66 L-5,66 L-5,63 L-4,63 L-4,34 L-5,34 L-5,26 L-4,26 L-4,25 L-5,25 L-5,7 L-4,7 L-4,4 L-3,4 L-3,3 L-2,3 L-2,1 L0,1 Z M0,3 L0,5 L-1,5 L-1,6 L-2,6 L-2,66 L-1,66 L-1,68 L0,68 L0,69 L1,69 L1,70 L3,70 L3,71 L44,71 L44,70 L46,70 L46,68 L47,68 L47,66 L48,66 L48,56 L47,56 L47,49 L48,49 L48,40 L47,40 L47,34 L48,34 L48,12 L47,12 L47,10 L48,10 L48,7 L47,7 L47,5 L46,5 L46,4 L45,4 L45,3 Z " fill="#000000" transform="translate(398,589)"/>
  <path d="M0,0 L2,0 L2,1 L3,1 L3,2 L2,2 L2,4 L1,4 L1,5 L0,5 L0,6 L-1,6 L-1,7 L-2,7 L-2,8 L-3,8 L-3,10 L-4,10 L-4,11 L-5,11 L-5,12 L-6,12 L-6,13 L-8,13 L-8,12 L-9,12 L-9,11 L-10,11 L-10,10 L-11,10 L-11,9 L-12,9 L-12,8 L-13,8 L-13,6 L-10,6 L-10,7 L-9,7 L-9,8 L-8,8 L-8,9 L-6,9 L-6,8 L-5,8 L-5,6 L-4,6 L-4,5 L-3,5 L-3,4 L-2,4 L-2,3 L-1,3 L-1,1 L0,1 Z " fill="#000000" transform="translate(415,599)"/>
  <path d="M0,0 L15,0 L15,1 L16,1 L16,0 L17,0 L17,1 L18,1 L18,3 L0,3 Z " fill="#000000" transform="translate(420,605)"/>
  <path d="M0,0 L3,0 L3,3 L2,3 L2,5 L1,5 L1,6 L-1,6 L-1,3 L0,3 Z " fill="#000000" transform="translate(733,614)"/>
  <path d="M0,0 L3,0 L3,2 L4,2 L4,3 L5,3 L5,5 L4,5 L4,6 L2,6 L2,5 L0,5 L0,6 L-2,6 L-2,3 L-1,3 L-1,2 L0,2 Z " fill="#000000" transform="translate(568,616)"/>
  <path d="M0,0 L2,0 L2,2 L3,2 L3,4 L4,4 L4,6 L2,6 L2,5 L1,5 L1,4 L0,4 Z " fill="#000000" transform="translate(283,619)"/>
  <path d="M0,0 L3,0 L3,1 L2,1 L2,3 L1,3 L1,4 L0,4 L0,5 L-1,5 L-1,7 L-2,7 L-2,8 L-3,8 L-3,9 L-4,9 L-4,10 L-5,10 L-5,11 L-6,11 L-6,12 L-8,12 L-8,11 L-9,11 L-9,10 L-10,10 L-10,9 L-11,9 L-11,8 L-12,8 L-12,7 L-13,7 L-13,6 L-12,6 L-12,5 L-10,5 L-10,6 L-9,6 L-9,7 L-8,7 L-8,8 L-6,8 L-6,7 L-5,7 L-5,6 L-4,6 L-4,5 L-3,5 L-3,3 L-2,3 L-2,2 L-1,2 L-1,1 L0,1 Z " fill="#000000" transform="translate(415,619)"/>
  <path d="M0,0 L19,0 L19,2 L18,2 L18,3 L0,3 Z " fill="#000000" transform="translate(420,625)"/>
  <path d="M0,0 L2,0 L2,4 L0,4 L0,3 L-1,3 L-1,1 L0,1 Z " fill="#000000" transform="translate(569,625)"/>
  <path d="M0,0 L2,0 L2,1 L3,1 L3,2 L2,2 L2,4 L1,4 L1,5 L0,5 L0,6 L-1,6 L-1,5 L-2,5 L-2,4 L-1,4 L-1,2 L0,2 Z " fill="#000000" transform="translate(728,626)"/>
  <path d="M0,0 L2,0 L2,2 L3,2 L3,4 L4,4 L4,6 L2,6 L2,5 L1,5 L1,3 L0,3 Z " fill="#000000" transform="translate(289,631)"/>
  <path d="M0,0 L1,0 L1,1 L2,1 L2,4 L0,4 L0,3 L-1,3 L-1,1 L0,1 Z " fill="#000000" transform="translate(569,632)"/>
  <path d="M0,0 L2,0 L2,3 L1,3 L1,4 L0,4 L0,5 L-1,5 L-1,6 L-2,6 L-2,7 L-3,7 L-3,8 L-4,8 L-4,10 L-5,10 L-5,11 L-6,11 L-6,12 L-7,12 L-7,13 L-9,13 L-9,12 L-10,12 L-10,11 L-11,11 L-11,10 L-12,10 L-12,9 L-13,9 L-13,7 L-14,7 L-14,6 L-11,6 L-11,7 L-10,7 L-10,8 L-9,8 L-9,9 L-7,9 L-7,7 L-6,7 L-6,6 L-5,6 L-5,5 L-4,5 L-4,4 L-3,4 L-3,3 L-2,3 L-2,1 L0,1 Z " fill="#000000" transform="translate(416,638)"/>
  <path d="M0,0 L2,0 L2,4 L1,4 L1,5 L0,5 L0,6 L-1,6 L-1,5 L-2,5 L-2,3 L-1,3 L-1,1 L0,1 Z " fill="#000000" transform="translate(722,638)"/>
  <path d="M0,0 L2,0 L2,3 L1,3 L1,4 L0,4 L0,3 L-1,3 L-1,2 L0,2 Z " fill="#000000" transform="translate(569,640)"/>
  <path d="M0,0 L1,0 L1,1 L2,1 L2,3 L3,3 L3,4 L4,4 L4,6 L3,6 L3,7 L2,7 L2,6 L1,6 L1,5 L0,5 L0,3 L-1,3 L-1,1 L0,1 Z " fill="#000000" transform="translate(296,642)"/>
  <path d="M0,0 L18,0 L18,1 L19,1 L19,3 L0,3 Z " fill="#000000" transform="translate(420,644)"/>
  <path d="M0,0 L1,0 L1,1 L3,1 L3,3 L-1,3 L-1,1 L0,1 Z " fill="#000000" transform="translate(569,647)"/>
  <path d="M0,0 L4,0 L4,2 L0,2 Z " fill="#000000" transform="translate(576,648)"/>
  <path d="M0,0 L4,0 L4,2 L-1,2 L-1,1 L0,1 Z " fill="#000000" transform="translate(584,648)"/>
  <path d="M0,0 L6,0 L6,2 L0,2 Z " fill="#000000" transform="translate(590,648)"/>
  <path d="M0,0 L5,0 L5,2 L0,2 Z " fill="#000000" transform="translate(598,648)"/>
  <path d="M0,0 L5,0 L5,1 L4,1 L4,2 L-1,2 L-1,1 L0,1 Z " fill="#000000" transform="translate(606,648)"/>
  <path d="M0,0 L4,0 L4,2 L0,2 Z " fill="#000000" transform="translate(614,648)"/>
  <path d="M0,0 L4,0 L4,2 L0,2 Z " fill="#000000" transform="translate(622,648)"/>
  <path d="M0,0 L4,0 L4,2 L0,2 Z " fill="#000000" transform="translate(630,648)"/>
  <path d="M0,0 L4,0 L4,2 L0,2 Z " fill="#000000" transform="translate(638,648)"/>
  <path d="M0,0 L4,0 L4,2 L3,2 L3,3 L2,3 L2,2 L0,2 Z " fill="#000000" transform="translate(646,648)"/>
  <path d="M0,0 L3,0 L3,2 L0,2 Z " fill="#000000" transform="translate(654,648)"/>
  <path d="M0,0 L2,0 L2,3 L1,3 L1,5 L-2,5 L-2,3 L-1,3 L-1,1 L0,1 Z " fill="#000000" transform="translate(715,650)"/>
  <path d="M0,0 L1,0 L1,1 L2,1 L2,3 L3,3 L3,4 L4,4 L4,7 L2,7 L2,6 L1,6 L1,4 L0,4 L0,3 L-1,3 L-1,1 L0,1 Z " fill="#000000" transform="translate(303,653)"/>
  <path d="M0,0 L5,0 L5,4 L4,4 L4,5 L2,5 L2,3 L1,3 L1,2 L0,2 Z " fill="#000000" transform="translate(653,655)"/>
  <path d="M0,0 L2,0 L2,3 L1,3 L1,5 L0,5 L0,6 L-2,6 L-2,5 L-3,5 L-3,4 L-2,4 L-2,2 L-1,2 L-1,1 L0,1 Z " fill="#000000" transform="translate(708,661)"/>
  <path d="M0,0 L7,0 L7,1 L12,1 L12,2 L15,2 L15,3 L18,3 L18,4 L20,4 L20,5 L21,5 L21,6 L23,6 L23,7 L24,7 L24,8 L26,8 L26,9 L27,9 L27,10 L28,10 L28,11 L29,11 L29,12 L30,12 L30,14 L31,14 L31,15 L32,15 L32,17 L33,17 L33,19 L34,19 L34,21 L35,21 L35,25 L36,25 L36,30 L37,30 L37,37 L36,37 L36,41 L35,41 L35,44 L34,44 L34,46 L33,46 L33,48 L32,48 L32,50 L31,50 L31,52 L30,52 L30,53 L29,53 L29,54 L28,54 L28,55 L27,55 L27,56 L26,56 L26,57 L25,57 L25,58 L24,58 L24,59 L22,59 L22,60 L21,60 L21,61 L19,61 L19,62 L16,62 L16,63 L14,63 L14,64 L10,64 L10,65 L-1,65 L-1,64 L-5,64 L-5,63 L-8,63 L-8,62 L-10,62 L-10,61 L-12,61 L-12,60 L-13,60 L-13,59 L-15,59 L-15,58 L-16,58 L-16,57 L-17,57 L-17,56 L-18,56 L-18,55 L-19,55 L-19,54 L-20,54 L-20,53 L-21,53 L-21,52 L-22,52 L-22,50 L-23,50 L-23,49 L-24,49 L-24,46 L-25,46 L-25,44 L-26,44 L-26,41 L-27,41 L-27,36 L-28,36 L-28,29 L-27,29 L-27,24 L-26,24 L-26,20 L-25,20 L-25,18 L-24,18 L-24,16 L-23,16 L-23,15 L-22,15 L-22,13 L-21,13 L-21,12 L-20,12 L-20,11 L-19,11 L-19,10 L-18,10 L-18,9 L-17,9 L-17,8 L-16,8 L-16,7 L-14,7 L-14,6 L-13,6 L-13,5 L-11,5 L-11,4 L-9,4 L-9,3 L-7,3 L-7,2 L-4,2 L-4,1 L0,1 Z M-1,3 L-1,4 L-5,4 L-5,5 L-7,5 L-7,6 L-9,6 L-9,7 L-11,7 L-11,8 L-12,8 L-12,9 L-14,9 L-14,10 L-15,10 L-15,11 L-16,11 L-16,12 L-17,12 L-17,13 L-18,13 L-18,14 L-19,14 L-19,16 L-20,16 L-20,17 L-21,17 L-21,19 L-22,19 L-22,21 L-23,21 L-23,24 L-24,24 L-24,28 L-25,28 L-25,38 L-24,38 L-24,42 L-23,42 L-23,44 L-22,44 L-22,46 L-21,46 L-21,48 L-20,48 L-20,49 L-19,49 L-19,51 L-18,51 L-18,52 L-17,52 L-17,53 L-16,53 L-16,51 L-15,51 L-15,49 L-14,49 L-14,48 L-13,48 L-13,47 L-12,47 L-12,46 L-11,46 L-11,45 L-10,45 L-10,44 L-8,44 L-8,43 L-6,43 L-6,42 L-3,42 L-3,41 L12,41 L12,42 L15,42 L15,43 L17,43 L17,44 L19,44 L19,45 L20,45 L20,46 L21,46 L21,47 L22,47 L22,48 L23,48 L23,50 L24,50 L24,51 L25,51 L25,53 L26,53 L26,52 L27,52 L27,51 L28,51 L28,50 L29,50 L29,48 L30,48 L30,46 L31,46 L31,44 L32,44 L32,41 L33,41 L33,37 L34,37 L34,28 L33,28 L33,24 L32,24 L32,21 L31,21 L31,19 L30,19 L30,17 L29,17 L29,16 L28,16 L28,14 L27,14 L27,13 L26,13 L26,12 L25,12 L25,11 L24,11 L24,10 L22,10 L22,9 L21,9 L21,8 L19,8 L19,7 L18,7 L18,6 L16,6 L16,5 L13,5 L13,4 L9,4 L9,3 Z M2,43 L2,44 L-3,44 L-3,45 L-6,45 L-6,46 L-7,46 L-7,47 L-9,47 L-9,48 L-10,48 L-10,49 L-11,49 L-11,50 L-12,50 L-12,52 L-13,52 L-13,53 L-14,53 L-14,56 L-13,56 L-13,57 L-11,57 L-11,58 L-10,58 L-10,59 L-8,59 L-8,60 L-5,60 L-5,61 L-2,61 L-2,62 L10,62 L10,61 L14,61 L14,60 L16,60 L16,59 L18,59 L18,58 L20,58 L20,57 L21,57 L21,56 L22,56 L22,55 L23,55 L23,54 L22,54 L22,52 L21,52 L21,50 L20,50 L20,49 L19,49 L19,48 L18,48 L18,47 L17,47 L17,46 L15,46 L15,45 L12,45 L12,44 L6,44 L6,43 Z " fill="#000000" transform="translate(668,662)"/>
  <path d="M0,0 L3,0 L3,4 L1,4 L1,3 L0,3 Z " fill="#000000" transform="translate(310,665)"/>
  <path d="M0,0 L5,0 L5,1 L11,1 L11,2 L14,2 L14,3 L16,3 L16,4 L18,4 L18,5 L20,5 L20,6 L21,6 L21,7 L22,7 L22,8 L23,8 L23,9 L24,9 L24,10 L25,10 L25,11 L26,11 L26,12 L27,12 L27,13 L28,13 L28,14 L29,14 L29,16 L30,16 L30,18 L31,18 L31,20 L32,20 L32,22 L33,22 L33,25 L34,25 L34,40 L33,40 L33,43 L32,43 L32,46 L31,46 L31,48 L30,48 L30,50 L29,50 L29,51 L28,51 L28,53 L27,53 L27,54 L26,54 L26,55 L25,55 L25,56 L24,56 L24,57 L23,57 L23,58 L21,58 L21,59 L20,59 L20,60 L18,60 L18,61 L17,61 L17,62 L14,62 L14,63 L11,63 L11,64 L7,64 L7,65 L-3,65 L-3,64 L-7,64 L-7,63 L-10,63 L-10,62 L-12,62 L-12,61 L-14,61 L-14,60 L-16,60 L-16,59 L-17,59 L-17,58 L-18,58 L-18,57 L-19,57 L-19,56 L-20,56 L-20,55 L-21,55 L-21,54 L-22,54 L-22,53 L-23,53 L-23,52 L-24,52 L-24,50 L-25,50 L-25,49 L-26,49 L-26,47 L-27,47 L-27,45 L-28,45 L-28,42 L-29,42 L-29,39 L-30,39 L-30,27 L-29,27 L-29,23 L-28,23 L-28,21 L-27,21 L-27,19 L-26,19 L-26,17 L-25,17 L-25,15 L-24,15 L-24,13 L-23,13 L-23,12 L-22,12 L-22,11 L-21,11 L-21,10 L-20,10 L-20,9 L-19,9 L-19,8 L-18,8 L-18,7 L-16,7 L-16,6 L-15,6 L-15,5 L-13,5 L-13,4 L-11,4 L-11,3 L-9,3 L-9,2 L-6,2 L-6,1 L0,1 Z M-2,3 L-2,4 L-6,4 L-6,5 L-9,5 L-9,6 L-11,6 L-11,7 L-13,7 L-13,8 L-14,8 L-14,9 L-15,9 L-15,10 L-17,10 L-17,11 L-18,11 L-18,12 L-19,12 L-19,13 L-20,13 L-20,14 L-21,14 L-21,16 L-22,16 L-22,17 L-23,17 L-23,19 L-24,19 L-24,21 L-25,21 L-25,23 L-26,23 L-26,27 L-27,27 L-27,38 L-26,38 L-26,42 L-25,42 L-25,45 L-24,45 L-24,47 L-23,47 L-23,48 L-22,48 L-22,50 L-21,50 L-21,51 L-20,51 L-20,52 L-18,52 L-18,51 L-17,51 L-17,49 L-16,49 L-16,48 L-15,48 L-15,47 L-14,47 L-14,46 L-13,46 L-13,45 L-12,45 L-12,44 L-10,44 L-10,43 L-8,43 L-8,42 L-5,42 L-5,41 L9,41 L9,42 L12,42 L12,43 L15,43 L15,44 L17,44 L17,45 L18,45 L18,46 L19,46 L19,47 L20,47 L20,48 L21,48 L21,50 L22,50 L22,51 L23,51 L23,53 L24,53 L24,52 L25,52 L25,51 L26,51 L26,49 L27,49 L27,48 L28,48 L28,46 L29,46 L29,43 L30,43 L30,40 L31,40 L31,34 L32,34 L32,31 L31,31 L31,25 L30,25 L30,22 L29,22 L29,20 L28,20 L28,18 L27,18 L27,16 L26,16 L26,15 L25,15 L25,14 L24,14 L24,13 L23,13 L23,11 L22,11 L22,10 L20,10 L20,9 L19,9 L19,8 L17,8 L17,7 L16,7 L16,6 L14,6 L14,5 L11,5 L11,4 L7,4 L7,3 Z M-5,44 L-5,45 L-8,45 L-8,46 L-10,46 L-10,47 L-11,47 L-11,48 L-12,48 L-12,49 L-13,49 L-13,50 L-14,50 L-14,51 L-15,51 L-15,53 L-16,53 L-16,56 L-15,56 L-15,57 L-14,57 L-14,58 L-12,58 L-12,59 L-10,59 L-10,60 L-8,60 L-8,61 L-4,61 L-4,62 L8,62 L8,61 L12,61 L12,60 L14,60 L14,59 L16,59 L16,58 L18,58 L18,57 L19,57 L19,56 L20,56 L20,52 L19,52 L19,50 L18,50 L18,49 L17,49 L17,48 L16,48 L16,47 L14,47 L14,46 L12,46 L12,45 L9,45 L9,44 Z " fill="#000000" transform="translate(342,665)"/>
  <path d="M0,0 L9,0 L9,1 L11,1 L11,2 L13,2 L13,3 L14,3 L14,4 L15,4 L15,6 L16,6 L16,8 L17,8 L17,18 L16,18 L16,20 L15,20 L15,21 L14,21 L14,22 L13,22 L13,23 L12,23 L12,24 L10,24 L10,25 L0,25 L0,24 L-2,24 L-2,23 L-4,23 L-4,22 L-5,22 L-5,21 L-6,21 L-6,20 L-7,20 L-7,18 L-8,18 L-8,15 L-9,15 L-9,10 L-8,10 L-8,7 L-7,7 L-7,5 L-6,5 L-6,4 L-5,4 L-5,3 L-4,3 L-4,2 L-2,2 L-2,1 L0,1 Z M4,2 L4,3 L0,3 L0,4 L-2,4 L-2,5 L-3,5 L-3,6 L-4,6 L-4,8 L-5,8 L-5,11 L-6,11 L-6,15 L-5,15 L-5,17 L-4,17 L-4,19 L-3,19 L-3,20 L-2,20 L-2,21 L0,21 L0,22 L3,22 L3,23 L8,23 L8,22 L10,22 L10,21 L11,21 L11,20 L12,20 L12,19 L13,19 L13,18 L14,18 L14,15 L15,15 L15,12 L14,12 L14,9 L13,9 L13,7 L12,7 L12,5 L10,5 L10,4 L9,4 L9,3 L5,3 L5,2 Z " fill="#000000" transform="translate(668,676)"/>
  <path d="M0,0 L10,0 L10,1 L12,1 L12,2 L14,2 L14,3 L15,3 L15,4 L16,4 L16,6 L17,6 L17,8 L18,8 L18,11 L19,11 L19,14 L18,14 L18,18 L17,18 L17,20 L16,20 L16,21 L15,21 L15,22 L14,22 L14,23 L13,23 L13,24 L11,24 L11,25 L8,25 L8,26 L4,26 L4,25 L1,25 L1,24 L-1,24 L-1,23 L-3,23 L-3,22 L-4,22 L-4,21 L-5,21 L-5,19 L-6,19 L-6,17 L-7,17 L-7,14 L-8,14 L-8,11 L-7,11 L-7,7 L-6,7 L-6,5 L-5,5 L-5,4 L-4,4 L-4,3 L-3,3 L-3,2 L-2,2 L-2,1 L0,1 Z M4,2 L4,3 L1,3 L1,4 L-1,4 L-1,5 L-2,5 L-2,6 L-3,6 L-3,8 L-4,8 L-4,11 L-5,11 L-5,14 L-4,14 L-4,17 L-3,17 L-3,19 L-2,19 L-2,20 L-1,20 L-1,21 L1,21 L1,22 L3,22 L3,23 L8,23 L8,22 L10,22 L10,21 L12,21 L12,20 L13,20 L13,19 L14,19 L14,17 L15,17 L15,14 L16,14 L16,11 L15,11 L15,8 L14,8 L14,6 L13,6 L13,5 L12,5 L12,4 L10,4 L10,3 L6,3 L6,2 Z " fill="#000000" transform="translate(339,679)"/>
  <path d="M0,0 L13,0 L13,1 L20,1 L20,2 L23,2 L23,3 L26,3 L26,4 L28,4 L28,5 L31,5 L31,6 L33,6 L33,7 L34,7 L34,8 L36,8 L36,9 L38,9 L38,10 L39,10 L39,11 L41,11 L41,12 L42,12 L42,13 L43,13 L43,14 L44,14 L44,15 L45,15 L45,16 L46,16 L46,17 L47,17 L47,18 L48,18 L48,19 L49,19 L49,20 L50,20 L50,17 L51,17 L51,15 L53,15 L53,22 L54,22 L54,26 L53,26 L53,27 L52,27 L52,26 L49,26 L49,25 L45,25 L45,24 L44,24 L44,23 L47,23 L47,21 L46,21 L46,20 L45,20 L45,19 L44,19 L44,18 L43,18 L43,17 L42,17 L42,16 L41,16 L41,15 L40,15 L40,14 L38,14 L38,13 L37,13 L37,12 L36,12 L36,11 L34,11 L34,10 L32,10 L32,9 L30,9 L30,8 L28,8 L28,7 L26,7 L26,6 L23,6 L23,5 L19,5 L19,4 L15,4 L15,3 L-2,3 L-2,4 L-6,4 L-6,5 L-9,5 L-9,6 L-12,6 L-12,7 L-15,7 L-15,8 L-17,8 L-17,9 L-19,9 L-19,10 L-21,10 L-21,11 L-22,11 L-22,12 L-24,12 L-24,13 L-25,13 L-25,14 L-26,14 L-26,15 L-28,15 L-28,16 L-29,16 L-29,17 L-30,17 L-30,18 L-31,18 L-31,19 L-32,19 L-32,20 L-33,20 L-33,22 L-34,22 L-34,23 L-37,23 L-37,20 L-36,20 L-36,19 L-35,19 L-35,18 L-34,18 L-34,17 L-33,17 L-33,16 L-32,16 L-32,15 L-31,15 L-31,14 L-30,14 L-30,13 L-28,13 L-28,12 L-27,12 L-27,11 L-26,11 L-26,10 L-24,10 L-24,9 L-23,9 L-23,8 L-21,8 L-21,7 L-19,7 L-19,6 L-17,6 L-17,5 L-14,5 L-14,4 L-12,4 L-12,3 L-9,3 L-9,2 L-6,2 L-6,1 L0,1 Z " fill="#000000" transform="translate(506,700)"/>
  <path d="M0,0 L9,0 L9,1 L14,1 L14,2 L18,2 L18,3 L20,3 L20,4 L23,4 L23,5 L25,5 L25,6 L27,6 L27,7 L29,7 L29,8 L30,8 L30,9 L32,9 L32,10 L33,10 L33,11 L34,11 L34,12 L35,12 L35,13 L36,13 L36,14 L37,14 L37,15 L38,15 L38,16 L39,16 L39,18 L40,18 L40,19 L41,19 L41,21 L42,21 L42,22 L43,22 L43,24 L44,24 L44,26 L45,26 L45,29 L46,29 L46,32 L47,32 L47,36 L48,36 L48,52 L47,52 L47,56 L46,56 L46,59 L45,59 L45,62 L44,62 L44,64 L43,64 L43,66 L42,66 L42,67 L41,67 L41,69 L40,69 L40,71 L39,71 L39,72 L38,72 L38,73 L37,73 L37,74 L36,74 L36,75 L35,75 L35,76 L34,76 L34,77 L33,77 L33,78 L32,78 L32,79 L31,79 L31,80 L29,80 L29,81 L27,81 L27,82 L26,82 L26,83 L24,83 L24,84 L21,84 L21,85 L19,85 L19,86 L15,86 L15,87 L10,87 L10,88 L1,88 L1,87 L-5,87 L-5,86 L-8,86 L-8,85 L-11,85 L-11,84 L-14,84 L-14,83 L-16,83 L-16,82 L-18,82 L-18,81 L-19,81 L-19,80 L-21,80 L-21,79 L-22,79 L-22,78 L-23,78 L-23,77 L-24,77 L-24,76 L-25,76 L-25,75 L-26,75 L-26,74 L-27,74 L-27,73 L-28,73 L-28,72 L-29,72 L-29,71 L-30,71 L-30,70 L-31,70 L-31,68 L-32,68 L-32,66 L-33,66 L-33,64 L-34,64 L-34,62 L-35,62 L-35,60 L-36,60 L-36,57 L-37,57 L-37,53 L-38,53 L-38,47 L-39,47 L-39,40 L-38,40 L-38,34 L-37,34 L-37,31 L-36,31 L-36,28 L-35,28 L-35,25 L-34,25 L-34,23 L-33,23 L-33,21 L-32,21 L-32,20 L-31,20 L-31,18 L-30,18 L-30,17 L-29,17 L-29,16 L-28,16 L-28,15 L-27,15 L-27,14 L-26,14 L-26,13 L-25,13 L-25,12 L-24,12 L-24,11 L-23,11 L-23,10 L-22,10 L-22,9 L-20,9 L-20,8 L-19,8 L-19,7 L-17,7 L-17,6 L-15,6 L-15,5 L-13,5 L-13,4 L-11,4 L-11,3 L-8,3 L-8,2 L-5,2 L-5,1 L0,1 Z M-1,3 L-1,4 L-6,4 L-6,5 L-9,5 L-9,6 L-11,6 L-11,7 L-13,7 L-13,8 L-15,8 L-15,9 L-17,9 L-17,10 L-18,10 L-18,11 L-20,11 L-20,12 L-21,12 L-21,13 L-22,13 L-22,14 L-23,14 L-23,15 L-24,15 L-24,16 L-25,16 L-25,17 L-26,17 L-26,18 L-27,18 L-27,19 L-28,19 L-28,21 L-29,21 L-29,22 L-30,22 L-30,24 L-31,24 L-31,26 L-32,26 L-32,28 L-33,28 L-33,30 L-34,30 L-34,34 L-35,34 L-35,40 L-36,40 L-36,47 L-35,47 L-35,53 L-34,53 L-34,57 L-33,57 L-33,60 L-32,60 L-32,62 L-31,62 L-31,64 L-30,64 L-30,66 L-29,66 L-29,67 L-28,67 L-28,69 L-27,69 L-27,70 L-26,70 L-26,71 L-25,71 L-25,72 L-24,72 L-24,73 L-23,73 L-23,74 L-22,74 L-22,75 L-21,75 L-21,76 L-20,76 L-20,77 L-18,77 L-18,78 L-17,78 L-17,79 L-15,79 L-15,80 L-13,80 L-13,81 L-11,81 L-11,82 L-9,82 L-9,83 L-5,83 L-5,84 L0,84 L0,85 L10,85 L10,84 L16,84 L16,83 L19,83 L19,82 L21,82 L21,81 L23,81 L23,80 L25,80 L25,79 L27,79 L27,78 L28,78 L28,77 L30,77 L30,76 L31,76 L31,75 L32,75 L32,74 L33,74 L33,73 L34,73 L34,72 L35,72 L35,71 L36,71 L36,70 L37,70 L37,68 L38,68 L38,67 L39,67 L39,65 L40,65 L40,64 L41,64 L41,62 L42,62 L42,59 L43,59 L43,56 L44,56 L44,53 L45,53 L45,47 L46,47 L46,42 L45,42 L45,35 L44,35 L44,32 L43,32 L43,29 L42,29 L42,27 L41,27 L41,25 L40,25 L40,23 L39,23 L39,21 L38,21 L38,20 L37,20 L37,19 L36,19 L36,17 L35,17 L35,16 L34,16 L34,15 L33,15 L33,14 L32,14 L32,13 L31,13 L31,12 L29,12 L29,11 L28,11 L28,10 L27,10 L27,9 L25,9 L25,8 L23,8 L23,7 L21,7 L21,6 L18,6 L18,5 L15,5 L15,4 L10,4 L10,3 Z " fill="#000000" transform="translate(508,712)"/>
  <path d="M0,0 L3,0 L3,2 L2,2 L2,3 L0,3 Z " fill="#000000" transform="translate(376,722)"/>
  <path d="M0,0 L8,0 L8,1 L12,1 L12,2 L16,2 L16,3 L18,3 L18,4 L20,4 L20,5 L22,5 L22,6 L23,6 L23,7 L25,7 L25,8 L26,8 L26,9 L27,9 L27,10 L28,10 L28,11 L29,11 L29,12 L30,12 L30,13 L31,13 L31,15 L32,15 L32,17 L33,17 L33,19 L34,19 L34,21 L35,21 L35,23 L36,23 L36,26 L37,26 L37,31 L38,31 L38,38 L37,38 L37,43 L36,43 L36,46 L35,46 L35,48 L34,48 L34,50 L33,50 L33,52 L32,52 L32,53 L31,53 L31,55 L30,55 L30,56 L29,56 L29,57 L28,57 L28,58 L27,58 L27,59 L26,59 L26,60 L25,60 L25,61 L24,61 L24,62 L22,62 L22,63 L21,63 L21,64 L19,64 L19,65 L17,65 L17,66 L14,66 L14,67 L10,67 L10,68 L-1,68 L-1,67 L-5,67 L-5,66 L-8,66 L-8,65 L-10,65 L-10,64 L-12,64 L-12,63 L-14,63 L-14,62 L-16,62 L-16,61 L-17,61 L-17,60 L-18,60 L-18,59 L-20,59 L-20,58 L-21,58 L-21,56 L-22,56 L-22,55 L-23,55 L-23,54 L-24,54 L-24,52 L-25,52 L-25,50 L-26,50 L-26,49 L-27,49 L-27,46 L-28,46 L-28,43 L-29,43 L-29,39 L-30,39 L-30,31 L-29,31 L-29,25 L-28,25 L-28,22 L-27,22 L-27,20 L-26,20 L-26,17 L-25,17 L-25,16 L-24,16 L-24,14 L-23,14 L-23,13 L-22,13 L-22,12 L-21,12 L-21,11 L-20,11 L-20,10 L-19,10 L-19,9 L-18,9 L-18,8 L-17,8 L-17,7 L-16,7 L-16,6 L-14,6 L-14,5 L-12,5 L-12,4 L-10,4 L-10,3 L-8,3 L-8,2 L-5,2 L-5,1 L0,1 Z M-2,3 L-2,4 L-6,4 L-6,5 L-8,5 L-8,6 L-11,6 L-11,7 L-12,7 L-12,8 L-14,8 L-14,9 L-15,9 L-15,10 L-16,10 L-16,11 L-17,11 L-17,12 L-18,12 L-18,13 L-19,13 L-19,14 L-20,14 L-20,15 L-21,15 L-21,16 L-22,16 L-22,18 L-23,18 L-23,20 L-24,20 L-24,22 L-25,22 L-25,25 L-26,25 L-26,30 L-27,30 L-27,40 L-26,40 L-26,44 L-25,44 L-25,47 L-24,47 L-24,49 L-23,49 L-23,50 L-22,50 L-22,52 L-21,52 L-21,53 L-20,53 L-20,54 L-19,54 L-19,56 L-18,56 L-18,57 L-16,57 L-16,58 L-15,58 L-15,59 L-14,59 L-14,60 L-12,60 L-12,61 L-10,61 L-10,62 L-8,62 L-8,63 L-6,63 L-6,64 L-2,64 L-2,65 L10,65 L10,64 L14,64 L14,63 L16,63 L16,62 L18,62 L18,61 L20,61 L20,60 L22,60 L22,59 L23,59 L23,58 L24,58 L24,57 L25,57 L25,56 L26,56 L26,55 L27,55 L27,54 L28,54 L28,53 L29,53 L29,51 L30,51 L30,50 L31,50 L31,48 L32,48 L32,45 L33,45 L33,43 L34,43 L34,38 L35,38 L35,29 L34,29 L34,26 L33,26 L33,23 L32,23 L32,21 L31,21 L31,19 L30,19 L30,17 L29,17 L29,16 L28,16 L28,14 L27,14 L27,13 L26,13 L26,12 L25,12 L25,11 L24,11 L24,10 L23,10 L23,9 L21,9 L21,8 L20,8 L20,7 L18,7 L18,6 L16,6 L16,5 L13,5 L13,4 L9,4 L9,3 Z " fill="#000000" transform="translate(509,722)"/>
  <path d="M0,0 L2,0 L2,1 L4,1 L4,2 L6,2 L6,4 L5,4 L5,5 L3,5 L3,4 L2,4 L2,3 L0,3 Z " fill="#000000" transform="translate(385,727)"/>
  <path d="M0,0 L3,0 L3,3 L1,3 L1,4 L-2,4 L-2,3 L-3,3 L-3,2 L-2,2 L-2,1 L0,1 Z " fill="#000000" transform="translate(633,727)"/>
  <path d="M0,0 L2,0 L2,1 L3,1 L3,5 L2,5 L2,6 L0,6 Z " fill="#000000" transform="translate(512,729)"/>
  <path d="M0,0 L3,0 L3,1 L5,1 L5,2 L7,2 L7,4 L6,4 L6,5 L4,5 L4,4 L2,4 L2,3 L0,3 Z " fill="#000000" transform="translate(396,733)"/>
  <path d="M0,0 L2,0 L2,3 L0,3 L0,4 L-2,4 L-2,5 L-3,5 L-3,4 L-4,4 L-4,2 L-3,2 L-3,1 L0,1 Z " fill="#000000" transform="translate(622,733)"/>
  <path d="M0,0 L3,0 L3,1 L5,1 L5,2 L6,2 L6,4 L3,4 L3,3 L0,3 Z " fill="#000000" transform="translate(409,739)"/>
  <path d="M0,0 L2,0 L2,16 L3,16 L3,17 L4,17 L4,18 L5,18 L5,19 L6,19 L6,20 L7,20 L7,21 L8,21 L8,22 L10,22 L10,23 L11,23 L11,24 L12,24 L12,25 L13,25 L13,26 L14,26 L14,28 L11,28 L11,27 L10,27 L10,26 L9,26 L9,25 L7,25 L7,24 L6,24 L6,23 L5,23 L5,22 L4,22 L4,21 L3,21 L3,20 L1,20 L1,19 L0,19 Z " fill="#000000" transform="translate(512,739)"/>
  <path d="M0,0 L3,0 L3,3 L0,3 L0,4 L-3,4 L-3,2 L-2,2 L-2,1 L0,1 Z " fill="#000000" transform="translate(609,739)"/>
  <path d="M0,0 L2,0 L2,1 L5,1 L5,2 L6,2 L6,3 L5,3 L5,4 L3,4 L3,3 L0,3 L0,2 L-1,2 L-1,1 L0,1 Z " fill="#000000" transform="translate(422,744)"/>
  <path d="M0,0 L3,0 L3,3 L0,3 L0,4 L-3,4 L-3,1 L0,1 Z " fill="#000000" transform="translate(596,744)"/>
  <path d="M0,0 L2,0 L2,1 L5,1 L5,2 L6,2 L6,3 L5,3 L5,4 L2,4 L2,3 L-1,3 L-1,1 L0,1 Z " fill="#000000" transform="translate(435,748)"/>
  <path d="M0,0 L3,0 L3,3 L0,3 L0,4 L-3,4 L-3,1 L0,1 Z " fill="#000000" transform="translate(583,748)"/>
  <path d="M0,0 L1,0 L1,1 L4,1 L4,2 L5,2 L5,5 L4,5 L4,4 L0,4 L0,3 L-1,3 L-1,2 L0,2 Z " fill="#000000" transform="translate(448,751)"/>
  <path d="M0,0 L5,0 L5,2 L4,2 L4,3 L-1,3 L-1,1 L0,1 Z " fill="#000000" transform="translate(568,752)"/>
  <path d="M0,0 L4,0 L4,1 L5,1 L5,3 L-1,3 L-1,1 L0,1 Z " fill="#000000" transform="translate(487,754)"/>
  <path d="M0,0 L3,0 L3,1 L5,1 L5,3 L-1,3 L-1,1 L0,1 Z " fill="#000000" transform="translate(535,754)"/>
  <path d="M0,0 L1,0 L1,1 L2,1 L2,6 L0,6 L0,5 L-1,5 L-1,1 L0,1 Z " fill="#000000" transform="translate(512,777)"/>
</svg>
